<svg id="kity_svg_6" xmlns="http://www.w3.org/2000/svg" xmlns:xlink="http://www.w3.org/1999/xlink" version="1.1" width="2633" height="1920" style="background: rgb(251, 251, 251); visibility: visible;" viewBox="0 0 2633 1920"><defs id="kity_defs_7"><linearGradient id="kity_linearGradient_17" x1="0" y1="0" x2="0" y2="1"><stop id="kity_stop_18" offset="0" stop-color="rgb(255, 255, 255)"></stop><stop id="kity_stop_19" offset="1" stop-color="rgb(204, 204, 204)"></stop></linearGradient><marker id="kity_marker_2" orient="auto" refX="6" refY="0" viewBox="-7 -7 14 14" markerWidth="7" markerHeight="7" markerUnits="userSpaceOnUse"><path id="kity_path_3" fill="rgb(115, 191, 118)" stroke="none" d="M6,0A6,6,0,1,1,-6,0A6,6,0,1,1,6,0"></path></marker></defs><g id="kity_g_8"><g id="minder1" text-rendering="geometricPrecision"><g id="minder_connect_group1"><path id="kity_path_31" fill="none" stroke="rgb(115, 191, 118)" stroke-width="1" d="M1022.5,1029.5A293,180,0,0,0,729.5,849.5"></path><path id="kity_path_33" fill="none" stroke="rgb(115, 191, 118)" stroke-width="1" d="M590.5,849.5C569,849.5,569,675.5,547.5,675.5L444.5,675.5"></path><path id="kity_path_35" fill="none" stroke="rgb(115, 191, 118)" stroke-width="1" d="M444.5,675.5C305,675.5,305,546.5,165.5,546.5L66.5,546.5"></path><path id="kity_path_37" fill="none" stroke="rgb(115, 191, 118)" stroke-width="1" d="M444.5,675.5C302,675.5,302,621.5,159.5,621.5L60.5,621.5"></path><path id="kity_path_39" fill="none" stroke="rgb(115, 191, 118)" stroke-width="1" d="M444.5,675.5C298.5,675.5,298.5,700.5,152.5,700.5L54.5,700.5"></path><path id="kity_path_41" fill="none" stroke="rgb(115, 191, 118)" stroke-width="1" d="M444.5,675.5C298.5,675.5,298.5,771.5,152.5,771.5L52.5,771.5"></path><path id="kity_path_43" fill="none" stroke="rgb(115, 191, 118)" stroke-width="1" d="M444.5,675.5C297.5,675.5,297.5,861.5,150.5,861.5L51.5,861.5"></path><path id="kity_path_45" fill="none" stroke="rgb(115, 191, 118)" stroke-width="1" d="M590.5,849.5C567,849.5,567,1053.5,543.5,1053.5L439.5,1053.5"></path><path id="kity_path_47" fill="none" stroke="rgb(115, 191, 118)" stroke-width="1" d="M439.5,1053.5C284,1053.5,284,1001.5,128.5,1001.5L30.5,1001.5"></path><path id="kity_path_49" fill="none" stroke="rgb(115, 191, 118)" stroke-width="1" d="M439.5,1053.5C279.5,1053.5,279.5,1104.5,119.5,1104.5L20.5,1104.5"></path><path id="kity_path_51" fill="none" stroke="rgb(115, 191, 118)" stroke-width="1" d="M1022.5,1029.5A261,296,0,0,0,1283.5,1325.5"></path><path id="kity_path_53" fill="none" stroke="rgb(115, 191, 118)" stroke-width="1" d="M1407.5,1325.5C1465.5,1325.5,1465.5,527.5,1523.5,527.5L1627.5,527.5"></path><path id="kity_path_55" fill="none" stroke="rgb(115, 191, 118)" stroke-width="1" d="M1627.5,527.5C1656,527.5,1656,53.5,1684.5,53.5L2070.5,53.5"></path><path id="kity_path_57" fill="none" stroke="rgb(115, 191, 118)" stroke-width="1" d="M1627.5,527.5C1675,527.5,1675,163.5,1722.5,163.5L1844.5,163.5"></path><path id="kity_path_59" fill="none" stroke="rgb(115, 191, 118)" stroke-width="1" d="M1627.5,527.5C1681,527.5,1681,512.5,1734.5,512.5L1831.5,512.5"></path><path id="kity_path_61" fill="none" stroke="rgb(115, 191, 118)" stroke-width="1" d="M1831.5,512.5C2171,512.5,2171,465.5,2510.5,465.5L2601.5,465.5"></path><path id="kity_path_63" fill="none" stroke="rgb(115, 191, 118)" stroke-width="1" d="M2520.5,465.5C2505.5,465.5,2505.5,465.5,2490.5,465.5L2388.5,465.5"></path><path id="kity_path_65" fill="none" stroke="rgb(115, 191, 118)" stroke-width="1" d="M2388.5,465.5C2373.5,465.5,2373.5,400.5,2358.5,400.5L2243.5,400.5"></path><path id="kity_path_67" fill="none" stroke="rgb(115, 191, 118)" stroke-width="1" d="M2243.5,400.5C2223.5,400.5,2223.5,373.5,2203.5,373.5L2124.5,373.5"></path><path id="kity_path_69" fill="none" stroke="rgb(115, 191, 118)" stroke-width="1" d="M2388.5,465.5C2373.5,465.5,2373.5,530.5,2358.5,530.5L2302.5,530.5"></path><path id="kity_path_71" fill="none" stroke="rgb(115, 191, 118)" stroke-width="1" d="M2302.5,530.5C2287.5,530.5,2287.5,452.5,2272.5,452.5L2217.5,452.5"></path><path id="kity_path_73" fill="none" stroke="rgb(115, 191, 118)" stroke-width="1" d="M2217.5,452.5C2202.5,452.5,2202.5,434.5,2187.5,434.5L2107.5,434.5"></path><path id="kity_path_75" fill="none" stroke="rgb(115, 191, 118)" stroke-width="1" d="M2302.5,530.5C2287.5,530.5,2287.5,504.5,2272.5,504.5L2193.5,504.5"></path><path id="kity_path_77" fill="none" stroke="rgb(115, 191, 118)" stroke-width="1" d="M2302.5,530.5C2287.5,530.5,2287.5,556.5,2272.5,556.5L2145.5,556.5"></path><path id="kity_path_79" fill="none" stroke="rgb(115, 191, 118)" stroke-width="1" d="M2302.5,530.5C2287.5,530.5,2287.5,608.5,2272.5,608.5L2001.5,608.5"></path><path id="kity_path_81" fill="none" stroke="rgb(115, 191, 118)" stroke-width="1" d="M1627.5,527.5C1676,527.5,1676,296.5,1724.5,296.5L1822.5,296.5"></path><path id="kity_path_83" fill="none" stroke="rgb(115, 191, 118)" stroke-width="1" d="M1627.5,527.5C1675.5,527.5,1675.5,415.5,1723.5,415.5L1823.5,415.5"></path><path id="kity_path_85" fill="none" stroke="rgb(115, 191, 118)" stroke-width="1" d="M1407.5,1325.5C1492.5,1325.5,1492.5,1320.5,1577.5,1320.5L1681.5,1320.5"></path><path id="kity_path_87" fill="none" stroke="rgb(115, 191, 118)" stroke-width="1" d="M1681.5,1320.5C1721.5,1320.5,1721.5,1024.5,1761.5,1024.5L1883.5,1024.5"></path><path id="kity_path_89" fill="none" stroke="rgb(115, 191, 118)" stroke-width="1" d="M1681.5,1320.5C1739.5,1320.5,1739.5,1102.5,1797.5,1102.5L1895.5,1102.5"></path><path id="kity_path_91" fill="none" stroke="rgb(115, 191, 118)" stroke-width="1" d="M1681.5,1320.5C1756.5,1320.5,1756.5,1178.5,1831.5,1178.5L1929.5,1178.5"></path><path id="kity_path_93" fill="none" stroke="rgb(115, 191, 118)" stroke-width="1" d="M1681.5,1320.5C1754.5,1320.5,1754.5,1349.5,1827.5,1349.5L1927.5,1349.5"></path><path id="kity_path_95" fill="none" stroke="rgb(115, 191, 118)" stroke-width="1" d="M1927.5,1349.5C1951.5,1349.5,1951.5,1188.5,1975.5,1188.5L2098.5,1188.5"></path><path id="kity_path_97" fill="none" stroke="rgb(115, 191, 118)" stroke-width="1" d="M2098.5,1188.5C2115.5,1188.5,2115.5,1085.5,2132.5,1085.5L2212.5,1085.5"></path><path id="kity_path_99" fill="none" stroke="rgb(115, 191, 118)" stroke-width="1" d="M2098.5,1188.5C2129.5,1188.5,2129.5,1162.5,2160.5,1162.5L2264.5,1162.5"></path><path id="kity_path_101" fill="none" stroke="rgb(115, 191, 118)" stroke-width="1" d="M1927.5,1349.5C1955,1349.5,1955,1331.5,1982.5,1331.5L2080.5,1331.5"></path><path id="kity_path_103" fill="none" stroke="rgb(115, 191, 118)" stroke-width="1" d="M1927.5,1349.5C1954,1349.5,1954,1446.5,1980.5,1446.5L2054.5,1446.5"></path><path id="kity_path_105" fill="none" stroke="rgb(115, 191, 118)" stroke-width="1" d="M1681.5,1320.5C1767,1320.5,1767,1479.5,1852.5,1479.5L1926.5,1479.5"></path><path id="kity_path_107" fill="none" stroke="rgb(115, 191, 118)" stroke-width="1" d="M1681.5,1320.5C1752,1320.5,1752,1564.5,1822.5,1564.5L1936.5,1564.5"></path><path id="kity_path_109" fill="none" stroke="rgb(115, 191, 118)" stroke-width="1" d="M1407.5,1325.5C1490,1325.5,1490,1770.5,1572.5,1770.5L1677.5,1770.5"></path><path id="kity_path_111" fill="none" stroke="rgb(115, 191, 118)" stroke-width="1" d="M1677.5,1770.5C1683,1770.5,1683,1765.5,1688.5,1765.5L1817.5,1765.5"></path><path id="kity_path_113" fill="none" stroke="rgb(115, 191, 118)" stroke-width="1" d="M1817.5,1765.5C1847,1765.5,1847,1711.5,1876.5,1711.5L1999.5,1711.5"></path><path id="kity_path_115" fill="none" stroke="rgb(115, 191, 118)" stroke-width="1" d="M1817.5,1765.5C1843.5,1765.5,1843.5,1629.5,1869.5,1629.5L1991.5,1629.5"></path><path id="kity_path_117" fill="none" stroke="rgb(115, 191, 118)" stroke-width="1" d="M1817.5,1765.5C1838.5,1765.5,1838.5,1814.5,1859.5,1814.5L2029.5,1814.5"></path><path id="kity_path_119" fill="none" stroke="rgb(115, 191, 118)" stroke-width="1" d="M1817.5,1765.5C1831.5,1765.5,1831.5,1900.5,1845.5,1900.5L2015.5,1900.5"></path><path id="kity_path_121" fill="none" stroke="rgb(115, 191, 118)" stroke-width="1" d="M1407.5,1325.5C1479.5,1325.5,1479.5,937.5,1551.5,937.5L1654.5,937.5"></path><path id="kity_path_123" fill="none" stroke="rgb(115, 191, 118)" stroke-width="1" d="M1654.5,937.5C1700,937.5,1700,761.5,1745.5,761.5L1916.5,761.5"></path><path id="kity_path_125" fill="none" stroke="rgb(115, 191, 118)" stroke-width="1" d="M1654.5,937.5C1702,937.5,1702,838.5,1749.5,838.5L1907.5,838.5"></path><path id="kity_path_127" fill="none" stroke="rgb(115, 191, 118)" stroke-width="1" d="M1654.5,937.5C1677.5,937.5,1677.5,950.5,1700.5,950.5L1816.5,950.5"></path><path id="kity_path_129" fill="none" stroke="rgb(115, 191, 118)" stroke-width="1" d="M1816.5,950.5C2159,950.5,2159,851.5,2501.5,851.5L2579.5,851.5"></path><path id="kity_path_131" fill="none" stroke="rgb(115, 191, 118)" stroke-width="1" d="M2511.5,851.5C2496.5,851.5,2496.5,851.5,2481.5,851.5L2379.5,851.5"></path><path id="kity_path_133" fill="none" stroke="rgb(115, 191, 118)" stroke-width="1" d="M2379.5,851.5C2364.5,851.5,2364.5,786.5,2349.5,786.5L2209.5,786.5"></path><path id="kity_path_135" fill="none" stroke="rgb(115, 191, 118)" stroke-width="1" d="M2209.5,786.5C2192,786.5,2192,741.5,2174.5,741.5L2070.5,741.5"></path><path id="kity_path_137" fill="none" stroke="rgb(115, 191, 118)" stroke-width="1" d="M2379.5,851.5C2364.5,851.5,2364.5,924.5,2349.5,924.5L2293.5,924.5"></path><path id="kity_path_139" fill="none" stroke="rgb(115, 191, 118)" stroke-width="1" d="M2293.5,924.5C2278.5,924.5,2278.5,838.5,2263.5,838.5L2208.5,838.5"></path><path id="kity_path_141" fill="none" stroke="rgb(115, 191, 118)" stroke-width="1" d="M2208.5,838.5C2193.5,838.5,2193.5,838.5,2178.5,838.5L2098.5,838.5"></path><path id="kity_path_143" fill="none" stroke="rgb(115, 191, 118)" stroke-width="1" d="M2293.5,924.5C2278.5,924.5,2278.5,898.5,2263.5,898.5L2159.5,898.5"></path><path id="kity_path_145" fill="none" stroke="rgb(115, 191, 118)" stroke-width="1" d="M2293.5,924.5C2278.5,924.5,2278.5,958.5,2263.5,958.5L2111.5,958.5"></path><path id="kity_path_147" fill="none" stroke="rgb(115, 191, 118)" stroke-width="1" d="M2293.5,924.5C2278.5,924.5,2278.5,1010.5,2263.5,1010.5L1992.5,1010.5"></path><path id="kity_path_149" fill="none" stroke="rgb(115, 191, 118)" stroke-width="1" d="M1285.5,1325.5C1214.5,1325.5,1214.5,1640.5,1143.5,1640.5L1039.5,1640.5"></path><path id="kity_path_151" fill="none" stroke="rgb(115, 191, 118)" stroke-width="1" d="M1039.5,1640.5C1024.5,1640.5,1024.5,1565.5,1009.5,1565.5L899.5,1565.5"></path><path id="kity_path_153" fill="none" stroke="rgb(115, 191, 118)" stroke-width="1" d="M899.5,1565.5C884,1565.5,884,1493.5,868.5,1493.5L758.5,1493.5"></path><path id="kity_path_155" fill="none" stroke="rgb(115, 191, 118)" stroke-width="1" d="M758.5,1493.5C743.5,1493.5,743.5,1493.5,728.5,1493.5L624.5,1493.5"></path><path id="kity_path_157" fill="none" stroke="rgb(115, 191, 118)" stroke-width="1" d="M899.5,1565.5C884.5,1565.5,884.5,1595.5,869.5,1595.5L759.5,1595.5"></path><path id="kity_path_159" fill="none" stroke="rgb(115, 191, 118)" stroke-width="1" d="M1039.5,1640.5C1024.5,1640.5,1024.5,1655.5,1009.5,1655.5L899.5,1655.5"></path><path id="kity_path_161" fill="none" stroke="rgb(115, 191, 118)" stroke-width="1" d="M1039.5,1640.5C1024.5,1640.5,1024.5,1715.5,1009.5,1715.5L898.5,1715.5"></path></g><g id="minder_node1"><path id="node_outline1" fill="rgb(115, 191, 118)" stroke="rgb(115, 191, 118)" d="M835.5,1009.5h374a5,5,0,0,1,5,5v30a5,5,0,0,1,-5,5h-374a5,5,0,0,1,-5,-5v-30a5,5,0,0,1,5,-5z" stroke-width="3"></path><g id="node_text1" fill="white"><text id="kity_text_22" text-rendering="inherit" font-size="16" dy=".8em" y="1019.0999999046326" x="854.5">团购流程，黄色圈为必须做，红色①为主要模块</text></g></g><g id="kity_g_12"><path id="kity_path_13" fill="none" stroke="none" d="M854.5,1029.5h0v0h0z"></path></g><g id="kity_g_14"><path id="kity_path_15" fill="none" stroke="none" d="M854.5,1029.5h0v0h0z"></path><path id="kity_path_16" fill="none" stroke="none"></path></g><g id="minder_node2"><g id="node_expander10" style="cursor: pointer;"><path id="kity_path_619" fill="white" stroke="gray" d="M589.5,849.5A6,6,0,1,1,577.5,849.5A6,6,0,1,1,589.5,849.5"></path><path id="kity_path_620" fill="none" stroke="gray" d="M579,849.5L588,849.5"></path></g><path id="node_outline11" fill="rgb(238, 246, 238)" stroke="rgb(115, 191, 118)" d="M593.5,833.5h131a3,3,0,0,1,3,3v26a3,3,0,0,1,-3,3h-131a3,3,0,0,1,-3,-3v-26a3,3,0,0,1,3,-3z" stroke-width="1"></path><g id="node_text11" fill="black"><text id="kity_text_181" text-rendering="inherit" font-size="14" dy=".8em" y="840.4000000953674" x="635.5">管理员角度</text></g><g id="node_priority3"><path id="kity_path_306" fill="#840023" stroke="none" d="M611,853c0,3.866,3.134,7,7,7h6c3.866,0,7,-3.134,7,-7V847H611V853z"></path><path id="kity_path_307" fill="#FF1200" stroke="none" d="M631,850c0,3.866,-3.134,7,-7,7H618c-3.866,0,-7,-3.134,-7,-7V847c0,-3.866,3.134,-7,7,-7h6c3.866,0,7,3.134,7,7V850z" opacity="0.8"></path><text id="kity_text_308" text-rendering="geometricPrecision" x="620" y="849.5" text-anchor="middle" font-style="italic" font-size="12" fill="white" dy="5">1</text></g></g><g id="minder_node3"><g id="node_expander6" style="cursor: pointer;"><path id="kity_path_607" fill="white" stroke="gray" d="M549.5,657.5A6,6,0,1,1,537.5,657.5A6,6,0,1,1,549.5,657.5"></path><path id="kity_path_608" fill="none" stroke="gray" d="M539,657.5L548,657.5"></path></g><path id="node_outline7" fill="none" stroke="none" d="M449.5,642.5h83a5,5,0,0,1,5,5v20a5,5,0,0,1,-5,5h-83a5,5,0,0,1,-5,-5v-20a5,5,0,0,1,5,-5z"></path><g id="node_text7" fill="black"><text id="kity_text_173" text-rendering="inherit" font-size="12" dy=".8em" y="649.7000000476837" x="479.5">团购商品</text></g><g id="node_priority1"><path id="kity_path_296" fill="#840023" stroke="none" d="M455,661c0,3.866,3.134,7,7,7h6c3.866,0,7,-3.134,7,-7V655H455V661z"></path><path id="kity_path_297" fill="#FF1200" stroke="none" d="M475,658c0,3.866,-3.134,7,-7,7H462c-3.866,0,-7,-3.134,-7,-7V655c0,-3.866,3.134,-7,7,-7h6c3.866,0,7,3.134,7,7V658z" opacity="0.8"></path><text id="kity_text_298" text-rendering="geometricPrecision" x="464" y="657.5" text-anchor="middle" font-style="italic" font-size="12" fill="white" dy="5">1</text></g></g><g id="minder_node4"><g id="node_expander1" display="none" style="cursor: pointer;"><path id="kity_path_592" fill="white" stroke="gray" d="M167.5,528.5A6,6,0,1,1,155.5,528.5A6,6,0,1,1,167.5,528.5"></path><path id="kity_path_593" fill="none" stroke="gray"></path></g><path id="node_outline2" fill="none" stroke="none" d="M71.5,513.5h79a5,5,0,0,1,5,5v20a5,5,0,0,1,-5,5h-79a5,5,0,0,1,-5,-5v-20a5,5,0,0,1,5,-5z"></path><g id="node_text2" fill="black"><text id="kity_text_163" text-rendering="inherit" font-size="12" dy=".8em" y="520.7000000476837" x="101.5">1、上架</text></g><g id="node_progress1"><path id="kity_path_340" fill="#FFED83" stroke="none" d="M96,529A9,9,0,1,1,78,529A9,9,0,1,1,96,529"></path><path id="kity_path_341" fill="#43BC00" stroke="none" d="M87,529"></path><path id="kity_path_342" fill="#8E8E8E" stroke="none" d="M87,522c4.418,0,8,3.582,8,8h1c0,-5.523,-3.477,-10,-9,-10S78,524.477,78,530h1C79,525.582,82.582,522,87,522z"></path><path id="kity_path_344" fill="#EEE" stroke="none" d="M102.812,536.896l-6.75,6.75l-4.5,-4.5L93.25,537.459l2.812,2.803l5.062,-5.053L102.812,536.896z" display="none"></path><path id="kity_path_343" fill="url(#kity_linearGradient_17)" stroke="none" d="M87,519C81.477,519,77,523.477,77,529c0,5.523,4.477,10,10,10s10,-4.477,10,-10C97,523.477,92.523,519,87,519zM87,537c-4.418,0,-8,-3.582,-8,-8s3.582,-8,8,-8s8,3.582,8,8S91.418,537,87,537z"></path></g></g><g id="minder_node5"><g id="node_expander2" display="none" style="cursor: pointer;"><path id="kity_path_595" fill="white" stroke="gray" d="M161.5,603.5A6,6,0,1,1,149.5,603.5A6,6,0,1,1,161.5,603.5"></path><path id="kity_path_596" fill="none" stroke="gray"></path></g><path id="node_outline3" fill="none" stroke="none" d="M65.5,588.5h79a5,5,0,0,1,5,5v20a5,5,0,0,1,-5,5h-79a5,5,0,0,1,-5,-5v-20a5,5,0,0,1,5,-5z"></path><g id="node_text3" fill="black"><text id="kity_text_165" text-rendering="inherit" font-size="12" dy=".8em" y="595.7000000476837" x="95.5">2、下架</text></g><g id="node_progress2"><path id="kity_path_346" fill="#FFED83" stroke="none" d="M90,604A9,9,0,1,1,72,604A9,9,0,1,1,90,604"></path><path id="kity_path_347" fill="#43BC00" stroke="none" d="M81,604"></path><path id="kity_path_348" fill="#8E8E8E" stroke="none" d="M81,597c4.418,0,8,3.582,8,8h1c0,-5.523,-3.477,-10,-9,-10S72,599.477,72,605h1C73,600.582,76.582,597,81,597z"></path><path id="kity_path_350" fill="#EEE" stroke="none" d="M96.812,611.896l-6.75,6.75l-4.5,-4.5L87.25,612.459l2.812,2.803l5.062,-5.053L96.812,611.896z" display="none"></path><path id="kity_path_349" fill="url(#kity_linearGradient_17)" stroke="none" d="M81,594C75.477,594,71,598.477,71,604c0,5.523,4.477,10,10,10s10,-4.477,10,-10C91,598.477,86.523,594,81,594zM81,612c-4.418,0,-8,-3.582,-8,-8s3.582,-8,8,-8s8,3.582,8,8S85.418,612,81,612z"></path></g></g><g id="minder_node6"><g id="node_expander3" display="none" style="cursor: pointer;"><path id="kity_path_598" fill="white" stroke="gray" d="M154.5,682.5A6,6,0,1,1,142.5,682.5A6,6,0,1,1,154.5,682.5"></path><path id="kity_path_599" fill="none" stroke="gray"></path></g><path id="node_outline4" fill="none" stroke="none" d="M59.5,667.5h78a5,5,0,0,1,5,5v20a5,5,0,0,1,-5,5h-78a5,5,0,0,1,-5,-5v-20a5,5,0,0,1,5,-5z"></path><g id="node_text4" fill="black"><text id="kity_text_167" text-rendering="inherit" font-size="12" dy=".8em" y="674.7000000476837" x="89.5">3、查询</text></g><g id="node_progress3"><path id="kity_path_352" fill="#FFED83" stroke="none" d="M84,683A9,9,0,1,1,66,683A9,9,0,1,1,84,683"></path><path id="kity_path_353" fill="#43BC00" stroke="none" d="M75,683"></path><path id="kity_path_354" fill="#8E8E8E" stroke="none" d="M75,676c4.418,0,8,3.582,8,8h1c0,-5.523,-3.477,-10,-9,-10S66,678.477,66,684h1C67,679.582,70.582,676,75,676z"></path><path id="kity_path_356" fill="#EEE" stroke="none" d="M90.812,690.896l-6.75,6.75l-4.5,-4.5L81.25,691.459l2.812,2.803l5.062,-5.053L90.812,690.896z" display="none"></path><path id="kity_path_355" fill="url(#kity_linearGradient_17)" stroke="none" d="M75,673C69.477,673,65,677.477,65,683c0,5.523,4.477,10,10,10s10,-4.477,10,-10C85,677.477,80.523,673,75,673zM75,691c-4.418,0,-8,-3.582,-8,-8s3.582,-8,8,-8s8,3.582,8,8S79.418,691,75,691z"></path></g></g><g id="minder_node7"><g id="node_expander4" display="none" style="cursor: pointer;"><path id="kity_path_601" fill="white" stroke="gray" d="M154.5,753.5A6,6,0,1,1,142.5,753.5A6,6,0,1,1,154.5,753.5"></path><path id="kity_path_602" fill="none" stroke="gray"></path></g><path id="node_outline5" fill="none" stroke="none" d="M57.5,738.5h80a5,5,0,0,1,5,5v20a5,5,0,0,1,-5,5h-80a5,5,0,0,1,-5,-5v-20a5,5,0,0,1,5,-5z"></path><g id="node_text5" fill="black"><text id="kity_text_169" text-rendering="inherit" font-size="12" dy=".8em" y="745.7000000476837" x="87.5">4、删除</text></g><g id="node_progress4"><path id="kity_path_358" fill="#FFED83" stroke="none" d="M82,754A9,9,0,1,1,64,754A9,9,0,1,1,82,754"></path><path id="kity_path_359" fill="#43BC00" stroke="none" d="M73,754"></path><path id="kity_path_360" fill="#8E8E8E" stroke="none" d="M73,747c4.418,0,8,3.582,8,8h1c0,-5.523,-3.477,-10,-9,-10S64,749.477,64,755h1C65,750.582,68.582,747,73,747z"></path><path id="kity_path_362" fill="#EEE" stroke="none" d="M88.812,761.896l-6.75,6.75l-4.5,-4.5L79.25,762.459l2.812,2.803l5.062,-5.053L88.812,761.896z" display="none"></path><path id="kity_path_361" fill="url(#kity_linearGradient_17)" stroke="none" d="M73,744C67.477,744,63,748.477,63,754c0,5.523,4.477,10,10,10s10,-4.477,10,-10C83,748.477,78.523,744,73,744zM73,762c-4.418,0,-8,-3.582,-8,-8s3.582,-8,8,-8s8,3.582,8,8S77.418,762,73,762z"></path></g></g><g id="minder_node8"><g id="node_expander5" display="none" style="cursor: pointer;"><path id="kity_path_604" fill="white" stroke="gray" d="M152.5,843.5A6,6,0,1,1,140.5,843.5A6,6,0,1,1,152.5,843.5"></path><path id="kity_path_605" fill="none" stroke="gray"></path></g><path id="node_outline6" fill="none" stroke="none" d="M56.5,828.5h79a5,5,0,0,1,5,5v20a5,5,0,0,1,-5,5h-79a5,5,0,0,1,-5,-5v-20a5,5,0,0,1,5,-5z"></path><g id="node_text6" fill="black"><text id="kity_text_171" text-rendering="inherit" font-size="12" dy=".8em" y="835.7000000476837" x="86.5">5、修改</text></g><g id="node_progress5"><path id="kity_path_364" fill="#FFED83" stroke="none" d="M81,844A9,9,0,1,1,63,844A9,9,0,1,1,81,844"></path><path id="kity_path_365" fill="#43BC00" stroke="none" d="M72,844"></path><path id="kity_path_366" fill="#8E8E8E" stroke="none" d="M72,837c4.418,0,8,3.582,8,8h1c0,-5.523,-3.477,-10,-9,-10S63,839.477,63,845h1C64,840.582,67.582,837,72,837z"></path><path id="kity_path_368" fill="#EEE" stroke="none" d="M87.812,851.896l-6.75,6.75l-4.5,-4.5L78.25,852.459l2.812,2.803l5.062,-5.053L87.812,851.896z" display="none"></path><path id="kity_path_367" fill="url(#kity_linearGradient_17)" stroke="none" d="M72,834C66.477,834,62,838.477,62,844c0,5.523,4.477,10,10,10s10,-4.477,10,-10C82,838.477,77.523,834,72,834zM72,852c-4.418,0,-8,-3.582,-8,-8s3.582,-8,8,-8s8,3.582,8,8S76.418,852,72,852z"></path></g></g><g id="minder_node9"><g id="node_expander9" style="cursor: pointer;"><path id="kity_path_616" fill="white" stroke="gray" d="M545.5,1035.5A6,6,0,1,1,533.5,1035.5A6,6,0,1,1,545.5,1035.5"></path><path id="kity_path_617" fill="none" stroke="gray" d="M535,1035.5L544,1035.5"></path></g><path id="node_outline10" fill="none" stroke="none" d="M444.5,1020.5h84a5,5,0,0,1,5,5v20a5,5,0,0,1,-5,5h-84a5,5,0,0,1,-5,-5v-20a5,5,0,0,1,5,-5z"></path><g id="node_text10" fill="black"><text id="kity_text_179" text-rendering="inherit" font-size="12" dy=".8em" y="1027.7000000476837" x="474.5">团购订单</text></g><g id="node_priority2"><path id="kity_path_301" fill="#840023" stroke="none" d="M450,1039c0,3.866,3.134,7,7,7h6c3.866,0,7,-3.134,7,-7V1033H450V1039z"></path><path id="kity_path_302" fill="#FF1200" stroke="none" d="M470,1036c0,3.866,-3.134,7,-7,7H457c-3.866,0,-7,-3.134,-7,-7V1033c0,-3.866,3.134,-7,7,-7h6c3.866,0,7,3.134,7,7V1036z" opacity="0.8"></path><text id="kity_text_303" text-rendering="geometricPrecision" x="459" y="1035.5" text-anchor="middle" font-style="italic" font-size="12" fill="white" dy="5">1</text></g></g><g id="minder_node10"><g id="node_expander7" display="none" style="cursor: pointer;"><path id="kity_path_610" fill="white" stroke="gray" d="M130.5,983.5A6,6,0,1,1,118.5,983.5A6,6,0,1,1,130.5,983.5"></path><path id="kity_path_611" fill="none" stroke="gray"></path></g><path id="node_outline8" fill="none" stroke="none" d="M35.5,968.5h78a5,5,0,0,1,5,5v20a5,5,0,0,1,-5,5h-78a5,5,0,0,1,-5,-5v-20a5,5,0,0,1,5,-5z"></path><g id="node_text8" fill="black"><text id="kity_text_175" text-rendering="inherit" font-size="12" dy=".8em" y="975.7000000476837" x="65.5">1、查询</text></g><g id="node_progress6"><path id="kity_path_370" fill="#FFED83" stroke="none" d="M60,984A9,9,0,1,1,42,984A9,9,0,1,1,60,984"></path><path id="kity_path_371" fill="#43BC00" stroke="none" d="M51,984"></path><path id="kity_path_372" fill="#8E8E8E" stroke="none" d="M51,977c4.418,0,8,3.582,8,8h1c0,-5.523,-3.477,-10,-9,-10S42,979.477,42,985h1C43,980.582,46.582,977,51,977z"></path><path id="kity_path_374" fill="#EEE" stroke="none" d="M66.812,991.896l-6.75,6.75l-4.5,-4.5L57.25,992.459l2.812,2.803l5.062,-5.053L66.812,991.896z" display="none"></path><path id="kity_path_373" fill="url(#kity_linearGradient_17)" stroke="none" d="M51,974C45.477000000000004,974,41,978.477,41,984c0,5.523,4.477,10,10,10s10,-4.477,10,-10C61,978.477,56.522999999999996,974,51,974zM51,992c-4.418,0,-8,-3.582,-8,-8s3.582,-8,8,-8s8,3.582,8,8S55.418,992,51,992z"></path></g></g><g id="minder_node11"><g id="node_expander8" display="none" style="cursor: pointer;"><path id="kity_path_613" fill="white" stroke="gray" d="M121.5,1086.5A6,6,0,1,1,109.5,1086.5A6,6,0,1,1,121.5,1086.5"></path><path id="kity_path_614" fill="none" stroke="gray"></path></g><path id="node_outline9" fill="none" stroke="none" d="M25.5,1071.5h79a5,5,0,0,1,5,5v20a5,5,0,0,1,-5,5h-79a5,5,0,0,1,-5,-5v-20a5,5,0,0,1,5,-5z"></path><g id="node_text9" fill="black"><text id="kity_text_177" text-rendering="inherit" font-size="12" dy=".8em" y="1078.7000000476837" x="55.5">3、退款</text></g><g id="node_progress7"><path id="kity_path_376" fill="#FFED83" stroke="none" d="M50,1087A9,9,0,1,1,32,1087A9,9,0,1,1,50,1087"></path><path id="kity_path_377" fill="#43BC00" stroke="none" d="M41,1087"></path><path id="kity_path_378" fill="#8E8E8E" stroke="none" d="M41,1080c4.418,0,8,3.582,8,8h1c0,-5.523,-3.477,-10,-9,-10S32,1082.477,32,1088h1C33,1083.582,36.582,1080,41,1080z"></path><path id="kity_path_380" fill="#EEE" stroke="none" d="M56.812,1094.896l-6.75,6.75l-4.5,-4.5L47.25,1095.459l2.812,2.803l5.062,-5.053L56.812,1094.896z" display="none"></path><path id="kity_path_379" fill="url(#kity_linearGradient_17)" stroke="none" d="M41,1077C35.477000000000004,1077,31,1081.477,31,1087c0,5.523,4.477,10,10,10s10,-4.477,10,-10C51,1081.477,46.522999999999996,1077,41,1077zM41,1095c-4.418,0,-8,-3.582,-8,-8s3.582,-8,8,-8s8,3.582,8,8S45.418,1095,41,1095z"></path></g></g><g id="minder_node12"><g id="node_expander66" style="cursor: pointer;"><path id="kity_path_787" fill="white" stroke="gray" d="M1420.5,1325.5A6,6,0,1,1,1408.5,1325.5A6,6,0,1,1,1420.5,1325.5"></path><path id="kity_path_788" fill="none" stroke="gray" d="M1410,1325.5L1419,1325.5"></path></g><path id="node_outline67" fill="rgb(238, 246, 238)" stroke="rgb(115, 191, 118)" d="M1288.5,1309.5h116a3,3,0,0,1,3,3v26a3,3,0,0,1,-3,3h-116a3,3,0,0,1,-3,-3v-26a3,3,0,0,1,3,-3z" stroke-width="1"></path><g id="node_text67" fill="black"><text id="kity_text_293" text-rendering="inherit" font-size="14" dy=".8em" y="1316.4000000953674" x="1330.5">用户角度</text></g><g id="node_priority9"><path id="kity_path_336" fill="#840023" stroke="none" d="M1306,1329c0,3.866,3.134,7,7,7h6c3.866,0,7,-3.134,7,-7V1323H1306V1329z"></path><path id="kity_path_337" fill="#FF1200" stroke="none" d="M1326,1326c0,3.866,-3.134,7,-7,7H1313c-3.866,0,-7,-3.134,-7,-7V1323c0,-3.866,3.134,-7,7,-7h6c3.866,0,7,3.134,7,7V1326z" opacity="0.8"></path><text id="kity_text_338" text-rendering="geometricPrecision" x="1315" y="1325.5" text-anchor="middle" font-style="italic" font-size="12" fill="white" dy="5">1</text></g></g><g id="minder_node13"><g id="node_expander26" style="cursor: pointer;"><path id="kity_path_667" fill="white" stroke="gray" d="M1639.5,509.5A6,6,0,1,1,1627.5,509.5A6,6,0,1,1,1639.5,509.5"></path><path id="kity_path_668" fill="none" stroke="gray" d="M1629,509.5L1638,509.5"></path></g><path id="node_outline27" fill="none" stroke="none" d="M1538.5,494.5h84a5,5,0,0,1,5,5v20a5,5,0,0,1,-5,5h-84a5,5,0,0,1,-5,-5v-20a5,5,0,0,1,5,-5z"></path><g id="node_text27" fill="black"><text id="kity_text_213" text-rendering="inherit" font-size="12" dy=".8em" y="501.7000000476837" x="1568.5">发起拼团</text></g><g id="node_priority4"><path id="kity_path_311" fill="#840023" stroke="none" d="M1544,513c0,3.866,3.134,7,7,7h6c3.866,0,7,-3.134,7,-7V507H1544V513z"></path><path id="kity_path_312" fill="#FF1200" stroke="none" d="M1564,510c0,3.866,-3.134,7,-7,7H1551c-3.866,0,-7,-3.134,-7,-7V507c0,-3.866,3.134,-7,7,-7h6c3.866,0,7,3.134,7,7V510z" opacity="0.8"></path><text id="kity_text_313" text-rendering="geometricPrecision" x="1553" y="509.5" text-anchor="middle" font-style="italic" font-size="12" fill="white" dy="5">1</text></g></g><g id="minder_node14"><g id="node_expander11" display="none" style="cursor: pointer;"><path id="kity_path_622" fill="white" stroke="gray" d="M2082.5,35.5A6,6,0,1,1,2070.5,35.5A6,6,0,1,1,2082.5,35.5"></path><path id="kity_path_623" fill="none" stroke="gray"></path></g><path id="node_outline12" fill="none" stroke="none" d="M1699.5,20.5h366a5,5,0,0,1,5,5v20a5,5,0,0,1,-5,5h-366a5,5,0,0,1,-5,-5v-20a5,5,0,0,1,5,-5z"></path><g id="node_text12" fill="black"><text id="kity_text_183" text-rendering="inherit" font-size="12" dy=".8em" y="27.700000047683716" x="1729.5">1、获取位置，（团长默认收货地址，改为从地图选择经纬度）</text></g><g id="node_progress8"><path id="kity_path_382" fill="#FFED83" stroke="none" d="M1724,36A9,9,0,1,1,1706,36A9,9,0,1,1,1724,36"></path><path id="kity_path_383" fill="#43BC00" stroke="none" d="M1715,36"></path><path id="kity_path_384" fill="#8E8E8E" stroke="none" d="M1715,29c4.418,0,8,3.582,8,8h1c0,-5.523,-3.477,-10,-9,-10S1706,31.477,1706,37h1C1707,32.582,1710.582,29,1715,29z"></path><path id="kity_path_386" fill="#EEE" stroke="none" d="M1730.812,43.896l-6.75,6.75l-4.5,-4.5L1721.25,44.459l2.812,2.803l5.062,-5.053L1730.812,43.896z" display="none"></path><path id="kity_path_385" fill="url(#kity_linearGradient_17)" stroke="none" d="M1715,26C1709.477,26,1705,30.477,1705,36c0,5.523,4.477,10,10,10s10,-4.477,10,-10C1725,30.477,1720.523,26,1715,26zM1715,44c-4.418,0,-8,-3.582,-8,-8s3.582,-8,8,-8s8,3.582,8,8S1719.418,44,1715,44z"></path></g></g><g id="minder_node15"><g id="node_expander12" display="none" style="cursor: pointer;"><path id="kity_path_625" fill="white" stroke="gray" d="M1856.5,145.5A6,6,0,1,1,1844.5,145.5A6,6,0,1,1,1856.5,145.5"></path><path id="kity_path_626" fill="none" stroke="gray"></path></g><path id="node_outline13" fill="none" stroke="none" d="M1737.5,130.5h102a5,5,0,0,1,5,5v20a5,5,0,0,1,-5,5h-102a5,5,0,0,1,-5,-5v-20a5,5,0,0,1,5,-5z"></path><g id="node_text13" fill="black"><text id="kity_text_185" text-rendering="inherit" font-size="12" dy=".8em" y="137.70000004768372" x="1767.5">2、填写距离</text></g><g id="node_progress9"><path id="kity_path_388" fill="#FFED83" stroke="none" d="M1762,146A9,9,0,1,1,1744,146A9,9,0,1,1,1762,146"></path><path id="kity_path_389" fill="#43BC00" stroke="none" d="M1753,146"></path><path id="kity_path_390" fill="#8E8E8E" stroke="none" d="M1753,139c4.418,0,8,3.582,8,8h1c0,-5.523,-3.477,-10,-9,-10S1744,141.477,1744,147h1C1745,142.582,1748.582,139,1753,139z"></path><path id="kity_path_392" fill="#EEE" stroke="none" d="M1768.812,153.896l-6.75,6.75l-4.5,-4.5L1759.25,154.459l2.812,2.803l5.062,-5.053L1768.812,153.896z" display="none"></path><path id="kity_path_391" fill="url(#kity_linearGradient_17)" stroke="none" d="M1753,136C1747.477,136,1743,140.477,1743,146c0,5.523,4.477,10,10,10s10,-4.477,10,-10C1763,140.477,1758.523,136,1753,136zM1753,154c-4.418,0,-8,-3.582,-8,-8s3.582,-8,8,-8s8,3.582,8,8S1757.418,154,1753,154z"></path></g></g><g id="minder_node16"><g id="node_expander23" style="cursor: pointer;"><path id="kity_path_658" fill="white" stroke="gray" d="M1843.5,498.5A6,6,0,1,1,1831.5,498.5A6,6,0,1,1,1843.5,498.5"></path><path id="kity_path_659" fill="none" stroke="gray" d="M1833,498.5L1842,498.5"></path></g><path id="node_outline24" fill="none" stroke="none" d="M1749.5,487.5h77a5,5,0,0,1,5,5v12a5,5,0,0,1,-5,5h-77a5,5,0,0,1,-5,-5v-12a5,5,0,0,1,5,-5z"></path><g id="node_text24" fill="black"><text id="kity_text_207" text-rendering="inherit" font-size="12" dy=".8em" y="490.7000000476837" x="1754.5">5、团员跟团</text></g></g><g id="minder_node17"><g id="node_expander22" style="cursor: pointer;"><path id="kity_path_655" fill="white" stroke="gray" d="M2613.5,451.5A6,6,0,1,1,2601.5,451.5A6,6,0,1,1,2613.5,451.5"></path><path id="kity_path_656" fill="none" stroke="gray" d="M2603,451.5L2612,451.5"></path></g><path id="node_outline23" fill="none" stroke="none" d="M2525.5,440.5h71a5,5,0,0,1,5,5v12a5,5,0,0,1,-5,5h-71a5,5,0,0,1,-5,-5v-12a5,5,0,0,1,5,-5z"></path><g id="node_text23" fill="black"><text id="kity_text_205" text-rendering="inherit" font-size="12" dy=".8em" y="443.7000000476837" x="2530.5">核心流程：</text></g></g><g id="minder_node18"><g id="node_expander21" style="cursor: pointer;"><path id="kity_path_652" fill="white" stroke="gray" d="M2492.5,451.5A6,6,0,1,1,2480.5,451.5A6,6,0,1,1,2492.5,451.5"></path><path id="kity_path_653" fill="none" stroke="gray" d="M2482,451.5L2491,451.5"></path></g><path id="node_outline22" fill="none" stroke="none" d="M2393.5,440.5h82a5,5,0,0,1,5,5v12a5,5,0,0,1,-5,5h-82a5,5,0,0,1,-5,-5v-12a5,5,0,0,1,5,-5z"></path><g id="node_text22" fill="black"><text id="kity_text_203" text-rendering="inherit" font-size="12" dy=".8em" y="443.7000000476837" x="2398.5">判断当前距离</text></g></g><g id="minder_node19"><g id="node_expander14" style="cursor: pointer;"><path id="kity_path_631" fill="white" stroke="gray" d="M2360.5,386.5A6,6,0,1,1,2348.5,386.5A6,6,0,1,1,2360.5,386.5"></path><path id="kity_path_632" fill="none" stroke="gray" d="M2350,386.5L2359,386.5"></path></g><path id="node_outline15" fill="none" stroke="none" d="M2248.5,375.5h95a5,5,0,0,1,5,5v12a5,5,0,0,1,-5,5h-95a5,5,0,0,1,-5,-5v-12a5,5,0,0,1,5,-5z"></path><g id="node_text15" fill="black"><text id="kity_text_189" text-rendering="inherit" font-size="12" dy=".8em" y="378.7000000476837" x="2253.5">符合，入团成功</text></g></g><g id="minder_node20"><g id="node_expander13" display="none" style="cursor: pointer;"><path id="kity_path_628" fill="white" stroke="gray" d="M2205.5,359.5A6,6,0,1,1,2193.5,359.5A6,6,0,1,1,2205.5,359.5"></path><path id="kity_path_629" fill="none" stroke="gray"></path></g><path id="node_outline14" fill="none" stroke="none" d="M2129.5,348.5h59a5,5,0,0,1,5,5v12a5,5,0,0,1,-5,5h-59a5,5,0,0,1,-5,-5v-12a5,5,0,0,1,5,-5z"></path><g id="node_text14" fill="black"><text id="kity_text_187" text-rendering="inherit" font-size="12" dy=".8em" y="351.7000000476837" x="2134.5">团员分享</text></g></g><g id="minder_node21"><g id="node_expander20" style="cursor: pointer;"><path id="kity_path_649" fill="white" stroke="gray" d="M2360.5,516.5A6,6,0,1,1,2348.5,516.5A6,6,0,1,1,2360.5,516.5"></path><path id="kity_path_650" fill="none" stroke="gray" d="M2350,516.5L2359,516.5"></path></g><path id="node_outline21" fill="none" stroke="none" d="M2307.5,505.5h36a5,5,0,0,1,5,5v12a5,5,0,0,1,-5,5h-36a5,5,0,0,1,-5,-5v-12a5,5,0,0,1,5,-5z"></path><g id="node_text21" fill="black"><text id="kity_text_201" text-rendering="inherit" font-size="12" dy=".8em" y="508.7000000476837" x="2312.5">不符</text></g></g><g id="minder_node22"><g id="node_expander16" style="cursor: pointer;"><path id="kity_path_637" fill="white" stroke="gray" d="M2274.5,438.5A6,6,0,1,1,2262.5,438.5A6,6,0,1,1,2274.5,438.5"></path><path id="kity_path_638" fill="none" stroke="gray" d="M2264,438.5L2273,438.5"></path></g><path id="node_outline17" fill="none" stroke="none" d="M2222.5,427.5h35a5,5,0,0,1,5,5v12a5,5,0,0,1,-5,5h-35a5,5,0,0,1,-5,-5v-12a5,5,0,0,1,5,-5z"></path><g id="node_text17" fill="black"><text id="kity_text_193" text-rendering="inherit" font-size="12" dy=".8em" y="430.7000000476837" x="2227.5">自提</text></g></g><g id="minder_node23"><g id="node_expander15" display="none" style="cursor: pointer;"><path id="kity_path_634" fill="white" stroke="gray" d="M2189.5,420.5A6,6,0,1,1,2177.5,420.5A6,6,0,1,1,2189.5,420.5"></path><path id="kity_path_635" fill="none" stroke="gray"></path></g><path id="node_outline16" fill="none" stroke="none" d="M2112.5,409.5h60a5,5,0,0,1,5,5v12a5,5,0,0,1,-5,5h-60a5,5,0,0,1,-5,-5v-12a5,5,0,0,1,5,-5z"></path><g id="node_text16" fill="black"><text id="kity_text_191" text-rendering="inherit" font-size="12" dy=".8em" y="412.7000000476837" x="2117.5">确认地址</text></g></g><g id="minder_node24"><g id="node_expander17" display="none" style="cursor: pointer;"><path id="kity_path_640" fill="white" stroke="gray" d="M2274.5,490.5A6,6,0,1,1,2262.5,490.5A6,6,0,1,1,2274.5,490.5"></path><path id="kity_path_641" fill="none" stroke="gray"></path></g><path id="node_outline18" fill="none" stroke="none" d="M2198.5,479.5h59a5,5,0,0,1,5,5v12a5,5,0,0,1,-5,5h-59a5,5,0,0,1,-5,-5v-12a5,5,0,0,1,5,-5z"></path><g id="node_text18" fill="black"><text id="kity_text_195" text-rendering="inherit" font-size="12" dy=".8em" y="482.7000000476837" x="2203.5">重新拼团</text></g></g><g id="minder_node25"><g id="node_expander18" display="none" style="cursor: pointer;"><path id="kity_path_643" fill="white" stroke="gray" d="M2274.5,542.5A6,6,0,1,1,2262.5,542.5A6,6,0,1,1,2274.5,542.5"></path><path id="kity_path_644" fill="none" stroke="gray"></path></g><path id="node_outline19" fill="none" stroke="none" d="M2150.5,531.5h107a5,5,0,0,1,5,5v12a5,5,0,0,1,-5,5h-107a5,5,0,0,1,-5,-5v-12a5,5,0,0,1,5,-5z"></path><g id="node_text19" fill="black"><text id="kity_text_197" text-rendering="inherit" font-size="12" dy=".8em" y="534.7000000476837" x="2155.5">是代理，发起拼团</text></g></g><g id="minder_node26"><g id="node_expander19" display="none" style="cursor: pointer;"><path id="kity_path_646" fill="white" stroke="gray" d="M2274.5,594.5A6,6,0,1,1,2262.5,594.5A6,6,0,1,1,2274.5,594.5"></path><path id="kity_path_647" fill="none" stroke="gray"></path></g><path id="node_outline20" fill="none" stroke="none" d="M2006.5,583.5h251a5,5,0,0,1,5,5v12a5,5,0,0,1,-5,5h-251a5,5,0,0,1,-5,-5v-12a5,5,0,0,1,5,-5z"></path><g id="node_text20" fill="black"><text id="kity_text_199" text-rendering="inherit" font-size="12" dy=".8em" y="586.7000000476837" x="2011.5">请团长更改信息，或请团长重新发起一次拼团</text></g></g><g id="minder_node27"><g id="node_expander24" display="none" style="cursor: pointer;"><path id="kity_path_661" fill="white" stroke="gray" d="M1834.5,278.5A6,6,0,1,1,1822.5,278.5A6,6,0,1,1,1834.5,278.5"></path><path id="kity_path_662" fill="none" stroke="gray"></path></g><path id="node_outline25" fill="none" stroke="none" d="M1739.5,263.5h78a5,5,0,0,1,5,5v20a5,5,0,0,1,-5,5h-78a5,5,0,0,1,-5,-5v-20a5,5,0,0,1,5,-5z"></path><g id="node_text25" fill="black"><text id="kity_text_209" text-rendering="inherit" font-size="12" dy=".8em" y="270.7000000476837" x="1769.5">3、支付</text></g><g id="node_progress10"><path id="kity_path_394" fill="#FFED83" stroke="none" d="M1764,279A9,9,0,1,1,1746,279A9,9,0,1,1,1764,279"></path><path id="kity_path_395" fill="#43BC00" stroke="none" d="M1755,279"></path><path id="kity_path_396" fill="#8E8E8E" stroke="none" d="M1755,272c4.418,0,8,3.582,8,8h1c0,-5.523,-3.477,-10,-9,-10S1746,274.477,1746,280h1C1747,275.582,1750.582,272,1755,272z"></path><path id="kity_path_398" fill="#EEE" stroke="none" d="M1770.812,286.896l-6.75,6.75l-4.5,-4.5L1761.25,287.459l2.812,2.803l5.062,-5.053L1770.812,286.896z" display="none"></path><path id="kity_path_397" fill="url(#kity_linearGradient_17)" stroke="none" d="M1755,269C1749.477,269,1745,273.477,1745,279c0,5.523,4.477,10,10,10s10,-4.477,10,-10C1765,273.477,1760.523,269,1755,269zM1755,287c-4.418,0,-8,-3.582,-8,-8s3.582,-8,8,-8s8,3.582,8,8S1759.418,287,1755,287z"></path></g></g><g id="minder_node28"><g id="node_expander25" display="none" style="cursor: pointer;"><path id="kity_path_664" fill="white" stroke="gray" d="M1835.5,397.5A6,6,0,1,1,1823.5,397.5A6,6,0,1,1,1835.5,397.5"></path><path id="kity_path_665" fill="none" stroke="gray"></path></g><path id="node_outline26" fill="none" stroke="none" d="M1738.5,382.5h80a5,5,0,0,1,5,5v20a5,5,0,0,1,-5,5h-80a5,5,0,0,1,-5,-5v-20a5,5,0,0,1,5,-5z"></path><g id="node_text26" fill="black"><text id="kity_text_211" text-rendering="inherit" font-size="12" dy=".8em" y="389.7000000476837" x="1768.5">4、分享</text></g><g id="node_progress11"><path id="kity_path_400" fill="#FFED83" stroke="none" d="M1763,398A9,9,0,1,1,1745,398A9,9,0,1,1,1763,398"></path><path id="kity_path_401" fill="#43BC00" stroke="none" d="M1754,398"></path><path id="kity_path_402" fill="#8E8E8E" stroke="none" d="M1754,391c4.418,0,8,3.582,8,8h1c0,-5.523,-3.477,-10,-9,-10S1745,393.477,1745,399h1C1746,394.582,1749.582,391,1754,391z"></path><path id="kity_path_404" fill="#EEE" stroke="none" d="M1769.812,405.896l-6.75,6.75l-4.5,-4.5L1760.25,406.459l2.812,2.803l5.062,-5.053L1769.812,405.896z" display="none"></path><path id="kity_path_403" fill="url(#kity_linearGradient_17)" stroke="none" d="M1754,388C1748.477,388,1744,392.477,1744,398c0,5.523,4.477,10,10,10s10,-4.477,10,-10C1764,392.477,1759.523,388,1754,388zM1754,406c-4.418,0,-8,-3.582,-8,-8s3.582,-8,8,-8s8,3.582,8,8S1758.418,406,1754,406z"></path></g></g><g id="minder_node29"><g id="node_expander38" style="cursor: pointer;"><path id="kity_path_703" fill="white" stroke="gray" d="M1693.5,1302.5A6,6,0,1,1,1681.5,1302.5A6,6,0,1,1,1693.5,1302.5"></path><path id="kity_path_704" fill="none" stroke="gray" d="M1683,1302.5L1692,1302.5"></path></g><path id="node_outline39" fill="none" stroke="none" d="M1592.5,1287.5h84a5,5,0,0,1,5,5v20a5,5,0,0,1,-5,5h-84a5,5,0,0,1,-5,-5v-20a5,5,0,0,1,5,-5z"></path><g id="node_text39" fill="black"><text id="kity_text_237" text-rendering="inherit" font-size="12" dy=".8em" y="1294.7000000476837" x="1622.5">拼团成功</text></g><g id="node_priority5"><path id="kity_path_316" fill="#840023" stroke="none" d="M1598,1306c0,3.866,3.134,7,7,7h6c3.866,0,7,-3.134,7,-7V1300H1598V1306z"></path><path id="kity_path_317" fill="#FF1200" stroke="none" d="M1618,1303c0,3.866,-3.134,7,-7,7H1605c-3.866,0,-7,-3.134,-7,-7V1300c0,-3.866,3.134,-7,7,-7h6c3.866,0,7,3.134,7,7V1303z" opacity="0.8"></path><text id="kity_text_318" text-rendering="geometricPrecision" x="1607" y="1302.5" text-anchor="middle" font-style="italic" font-size="12" fill="white" dy="5">1</text></g></g><g id="minder_node30"><g id="node_expander27" display="none" style="cursor: pointer;"><path id="kity_path_670" fill="white" stroke="gray" d="M1895.5,1006.5A6,6,0,1,1,1883.5,1006.5A6,6,0,1,1,1895.5,1006.5"></path><path id="kity_path_671" fill="none" stroke="gray"></path></g><path id="node_outline28" fill="none" stroke="none" d="M1776.5,991.5h102a5,5,0,0,1,5,5v20a5,5,0,0,1,-5,5h-102a5,5,0,0,1,-5,-5v-20a5,5,0,0,1,5,-5z"></path><g id="node_text28" fill="black"><text id="kity_text_215" text-rendering="inherit" font-size="12" dy=".8em" y="998.7000000476837" x="1806.5">1、短信通知</text></g><g id="node_progress12"><path id="kity_path_406" fill="#FFED83" stroke="none" d="M1801,1007A9,9,0,1,1,1783,1007A9,9,0,1,1,1801,1007"></path><path id="kity_path_407" fill="#43BC00" stroke="none" d="M1792,1007"></path><path id="kity_path_408" fill="#8E8E8E" stroke="none" d="M1792,1000c4.418,0,8,3.582,8,8h1c0,-5.523,-3.477,-10,-9,-10S1783,1002.477,1783,1008h1C1784,1003.582,1787.582,1000,1792,1000z"></path><path id="kity_path_410" fill="#EEE" stroke="none" d="M1807.812,1014.896l-6.75,6.75l-4.5,-4.5L1798.25,1015.459l2.812,2.803l5.062,-5.053L1807.812,1014.896z" display="none"></path><path id="kity_path_409" fill="url(#kity_linearGradient_17)" stroke="none" d="M1792,997C1786.477,997,1782,1001.477,1782,1007c0,5.523,4.477,10,10,10s10,-4.477,10,-10C1802,1001.477,1797.523,997,1792,997zM1792,1015c-4.418,0,-8,-3.582,-8,-8s3.582,-8,8,-8s8,3.582,8,8S1796.418,1015,1792,1015z"></path></g></g><g id="minder_node31"><g id="node_expander28" display="none" style="cursor: pointer;"><path id="kity_path_673" fill="white" stroke="gray" d="M1907.5,1084.5A6,6,0,1,1,1895.5,1084.5A6,6,0,1,1,1907.5,1084.5"></path><path id="kity_path_674" fill="none" stroke="gray"></path></g><path id="node_outline29" fill="none" stroke="none" d="M1812.5,1069.5h78a5,5,0,0,1,5,5v20a5,5,0,0,1,-5,5h-78a5,5,0,0,1,-5,-5v-20a5,5,0,0,1,5,-5z"></path><g id="node_text29" fill="black"><text id="kity_text_217" text-rendering="inherit" font-size="12" dy=".8em" y="1076.7000000476837" x="1842.5">2、发货</text></g><g id="node_progress13"><path id="kity_path_412" fill="#FFED83" stroke="none" d="M1837,1085A9,9,0,1,1,1819,1085A9,9,0,1,1,1837,1085"></path><path id="kity_path_413" fill="#43BC00" stroke="none" d="M1828,1085"></path><path id="kity_path_414" fill="#8E8E8E" stroke="none" d="M1828,1078c4.418,0,8,3.582,8,8h1c0,-5.523,-3.477,-10,-9,-10S1819,1080.477,1819,1086h1C1820,1081.582,1823.582,1078,1828,1078z"></path><path id="kity_path_416" fill="#EEE" stroke="none" d="M1843.812,1092.896l-6.75,6.75l-4.5,-4.5L1834.25,1093.459l2.812,2.803l5.062,-5.053L1843.812,1092.896z" display="none"></path><path id="kity_path_415" fill="url(#kity_linearGradient_17)" stroke="none" d="M1828,1075C1822.477,1075,1818,1079.477,1818,1085c0,5.523,4.477,10,10,10s10,-4.477,10,-10C1838,1079.477,1833.523,1075,1828,1075zM1828,1093c-4.418,0,-8,-3.582,-8,-8s3.582,-8,8,-8s8,3.582,8,8S1832.418,1093,1828,1093z"></path></g></g><g id="minder_node32"><g id="node_expander29" display="none" style="cursor: pointer;"><path id="kity_path_676" fill="white" stroke="gray" d="M1941.5,1164.5A6,6,0,1,1,1929.5,1164.5A6,6,0,1,1,1941.5,1164.5"></path><path id="kity_path_677" fill="none" stroke="gray"></path></g><path id="node_outline30" fill="none" stroke="none" d="M1846.5,1153.5h78a5,5,0,0,1,5,5v12a5,5,0,0,1,-5,5h-78a5,5,0,0,1,-5,-5v-12a5,5,0,0,1,5,-5z"></path><g id="node_text30" fill="black"><text id="kity_text_219" text-rendering="inherit" font-size="12" dy=".8em" y="1156.7000000476837" x="1851.5">3、不许退款</text></g></g><g id="minder_node33"><g id="node_expander35" style="cursor: pointer;"><path id="kity_path_694" fill="white" stroke="gray" d="M1939.5,1331.5A6,6,0,1,1,1927.5,1331.5A6,6,0,1,1,1939.5,1331.5"></path><path id="kity_path_695" fill="none" stroke="gray" d="M1929,1331.5L1938,1331.5"></path></g><path id="node_outline36" fill="none" stroke="none" d="M1842.5,1316.5h80a5,5,0,0,1,5,5v20a5,5,0,0,1,-5,5h-80a5,5,0,0,1,-5,-5v-20a5,5,0,0,1,5,-5z"></path><g id="node_text36" fill="black"><text id="kity_text_231" text-rendering="inherit" font-size="12" dy=".8em" y="1323.7000000476837" x="1872.5">4、配送</text></g><g id="node_progress15"><path id="kity_path_424" fill="#FFED83" stroke="none" d="M1867,1332A9,9,0,1,1,1849,1332A9,9,0,1,1,1867,1332"></path><path id="kity_path_425" fill="#43BC00" stroke="none" d="M1858,1332"></path><path id="kity_path_426" fill="#8E8E8E" stroke="none" d="M1858,1325c4.418,0,8,3.582,8,8h1c0,-5.523,-3.477,-10,-9,-10S1849,1327.477,1849,1333h1C1850,1328.582,1853.582,1325,1858,1325z"></path><path id="kity_path_428" fill="#EEE" stroke="none" d="M1873.812,1339.896l-6.75,6.75l-4.5,-4.5L1864.25,1340.459l2.812,2.803l5.062,-5.053L1873.812,1339.896z" display="none"></path><path id="kity_path_427" fill="url(#kity_linearGradient_17)" stroke="none" d="M1858,1322C1852.477,1322,1848,1326.477,1848,1332c0,5.523,4.477,10,10,10s10,-4.477,10,-10C1868,1326.477,1863.523,1322,1858,1322zM1858,1340c-4.418,0,-8,-3.582,-8,-8s3.582,-8,8,-8s8,3.582,8,8S1862.418,1340,1858,1340z"></path></g></g><g id="minder_node34"><g id="node_expander32" style="cursor: pointer;"><path id="kity_path_685" fill="white" stroke="gray" d="M2110.5,1170.5A6,6,0,1,1,2098.5,1170.5A6,6,0,1,1,2110.5,1170.5"></path><path id="kity_path_686" fill="none" stroke="gray" d="M2100,1170.5L2109,1170.5"></path></g><path id="node_outline33" fill="none" stroke="none" d="M1990.5,1155.5h103a5,5,0,0,1,5,5v20a5,5,0,0,1,-5,5h-103a5,5,0,0,1,-5,-5v-20a5,5,0,0,1,5,-5z"></path><g id="node_text33" fill="black"><text id="kity_text_225" text-rendering="inherit" font-size="12" dy=".8em" y="1162.7000000476837" x="2020.5">1、团长配送</text></g><g id="node_progress14"><path id="kity_path_418" fill="#FFED83" stroke="none" d="M2015,1171A9,9,0,1,1,1997,1171A9,9,0,1,1,2015,1171"></path><path id="kity_path_419" fill="#43BC00" stroke="none" d="M2006,1171"></path><path id="kity_path_420" fill="#8E8E8E" stroke="none" d="M2006,1164c4.418,0,8,3.582,8,8h1c0,-5.523,-3.477,-10,-9,-10S1997,1166.477,1997,1172h1C1998,1167.582,2001.582,1164,2006,1164z"></path><path id="kity_path_422" fill="#EEE" stroke="none" d="M2021.812,1178.896l-6.75,6.75l-4.5,-4.5L2012.25,1179.459l2.812,2.803l5.062,-5.053L2021.812,1178.896z" display="none"></path><path id="kity_path_421" fill="url(#kity_linearGradient_17)" stroke="none" d="M2006,1161C2000.477,1161,1996,1165.477,1996,1171c0,5.523,4.477,10,10,10s10,-4.477,10,-10C2016,1165.477,2011.523,1161,2006,1161zM2006,1179c-4.418,0,-8,-3.582,-8,-8s3.582,-8,8,-8s8,3.582,8,8S2010.418,1179,2006,1179z"></path></g></g><g id="minder_node35"><g id="node_expander30" display="none" style="cursor: pointer;"><path id="kity_path_679" fill="white" stroke="gray" d="M2224.5,1071.5A6,6,0,1,1,2212.5,1071.5A6,6,0,1,1,2224.5,1071.5"></path><path id="kity_path_680" fill="none" stroke="gray"></path></g><path id="node_outline31" fill="none" stroke="none" d="M2147.5,1060.5h60a5,5,0,0,1,5,5v12a5,5,0,0,1,-5,5h-60a5,5,0,0,1,-5,-5v-12a5,5,0,0,1,5,-5z"></path><g id="node_text31" fill="black"><text id="kity_text_221" text-rendering="inherit" font-size="12" dy=".8em" y="1063.7000000476837" x="2152.5">联络方式</text></g></g><g id="minder_node36"><g id="node_expander31" display="none" style="cursor: pointer;"><path id="kity_path_682" fill="white" stroke="gray" d="M2276.5,1148.5A6,6,0,1,1,2264.5,1148.5A6,6,0,1,1,2276.5,1148.5"></path><path id="kity_path_683" fill="none" stroke="gray"></path></g><path id="node_outline32" fill="none" stroke="none" d="M2175.5,1137.5h84a5,5,0,0,1,5,5v12a5,5,0,0,1,-5,5h-84a5,5,0,0,1,-5,-5v-12a5,5,0,0,1,5,-5z"></path><g id="node_text32" fill="black"><text id="kity_text_223" text-rendering="inherit" font-size="12" dy=".8em" y="1140.7000000476837" x="2180.5">用户跟踪订单</text></g></g><g id="minder_node37"><g id="node_expander33" display="none" style="cursor: pointer;"><path id="kity_path_688" fill="white" stroke="gray" d="M2092.5,1317.5A6,6,0,1,1,2080.5,1317.5A6,6,0,1,1,2092.5,1317.5"></path><path id="kity_path_689" fill="none" stroke="gray"></path></g><path id="node_outline34" fill="none" stroke="none" d="M1997.5,1306.5h78a5,5,0,0,1,5,5v12a5,5,0,0,1,-5,5h-78a5,5,0,0,1,-5,-5v-12a5,5,0,0,1,5,-5z"></path><g id="node_text34" fill="black"><text id="kity_text_227" text-rendering="inherit" font-size="12" dy=".8em" y="1309.7000000476837" x="2002.5">2、团员自提</text></g></g><g id="minder_node38"><g id="node_expander34" display="none" style="cursor: pointer;"><path id="kity_path_691" fill="white" stroke="gray" d="M2066.5,1432.5A6,6,0,1,1,2054.5,1432.5A6,6,0,1,1,2066.5,1432.5"></path><path id="kity_path_692" fill="none" stroke="gray"></path></g><path id="node_outline35" fill="none" stroke="none" d="M1995.5,1421.5h54a5,5,0,0,1,5,5v12a5,5,0,0,1,-5,5h-54a5,5,0,0,1,-5,-5v-12a5,5,0,0,1,5,-5z"></path><g id="node_text35" fill="black"><text id="kity_text_229" text-rendering="inherit" font-size="12" dy=".8em" y="1424.7000000476837" x="2000.5">3、混合</text></g></g><g id="minder_node39"><g id="node_expander36" display="none" style="cursor: pointer;"><path id="kity_path_697" fill="white" stroke="gray" d="M1938.5,1465.5A6,6,0,1,1,1926.5,1465.5A6,6,0,1,1,1938.5,1465.5"></path><path id="kity_path_698" fill="none" stroke="gray"></path></g><path id="node_outline37" fill="none" stroke="none" d="M1867.5,1454.5h54a5,5,0,0,1,5,5v12a5,5,0,0,1,-5,5h-54a5,5,0,0,1,-5,-5v-12a5,5,0,0,1,5,-5z"></path><g id="node_text37" fill="black"><text id="kity_text_233" text-rendering="inherit" font-size="12" dy=".8em" y="1457.7000000476837" x="1872.5">5、评价</text></g></g><g id="minder_node40"><g id="node_expander37" display="none" style="cursor: pointer;"><path id="kity_path_700" fill="white" stroke="gray" d="M1948.5,1546.5A6,6,0,1,1,1936.5,1546.5A6,6,0,1,1,1948.5,1546.5"></path><path id="kity_path_701" fill="none" stroke="gray"></path></g><path id="node_outline38" fill="none" stroke="none" d="M1837.5,1531.5h94a5,5,0,0,1,5,5v20a5,5,0,0,1,-5,5h-94a5,5,0,0,1,-5,-5v-20a5,5,0,0,1,5,-5z"></path><g id="node_text38" fill="black"><text id="kity_text_235" text-rendering="inherit" font-size="12" dy=".8em" y="1538.7000000476837" x="1867.5">6.团长收益</text></g><g id="node_progress16"><path id="kity_path_430" fill="#FFED83" stroke="none" d="M1862,1547A9,9,0,1,1,1844,1547A9,9,0,1,1,1862,1547"></path><path id="kity_path_431" fill="#43BC00" stroke="none" d="M1853,1547"></path><path id="kity_path_432" fill="#8E8E8E" stroke="none" d="M1853,1540c4.418,0,8,3.582,8,8h1c0,-5.523,-3.477,-10,-9,-10S1844,1542.477,1844,1548h1C1845,1543.582,1848.582,1540,1853,1540z"></path><path id="kity_path_434" fill="#EEE" stroke="none" d="M1868.812,1554.896l-6.75,6.75l-4.5,-4.5L1859.25,1555.459l2.812,2.803l5.062,-5.053L1868.812,1554.896z" display="none"></path><path id="kity_path_433" fill="url(#kity_linearGradient_17)" stroke="none" d="M1853,1537C1847.477,1537,1843,1541.477,1843,1547c0,5.523,4.477,10,10,10s10,-4.477,10,-10C1863,1541.477,1858.523,1537,1853,1537zM1853,1555c-4.418,0,-8,-3.582,-8,-8s3.582,-8,8,-8s8,3.582,8,8S1857.418,1555,1853,1555z"></path></g></g><g id="minder_node41"><g id="node_expander44" style="cursor: pointer;"><path id="kity_path_721" fill="white" stroke="gray" d="M1689.5,1752.5A6,6,0,1,1,1677.5,1752.5A6,6,0,1,1,1689.5,1752.5"></path><path id="kity_path_722" fill="none" stroke="gray" d="M1679,1752.5L1688,1752.5"></path></g><path id="node_outline45" fill="none" stroke="none" d="M1587.5,1737.5h85a5,5,0,0,1,5,5v20a5,5,0,0,1,-5,5h-85a5,5,0,0,1,-5,-5v-20a5,5,0,0,1,5,-5z"></path><g id="node_text45" fill="black"><text id="kity_text_249" text-rendering="inherit" font-size="12" dy=".8em" y="1744.7000000476837" x="1617.5">拼团失败</text></g><g id="node_priority6"><path id="kity_path_321" fill="#840023" stroke="none" d="M1593,1756c0,3.866,3.134,7,7,7h6c3.866,0,7,-3.134,7,-7V1750H1593V1756z"></path><path id="kity_path_322" fill="#FF1200" stroke="none" d="M1613,1753c0,3.866,-3.134,7,-7,7H1600c-3.866,0,-7,-3.134,-7,-7V1750c0,-3.866,3.134,-7,7,-7h6c3.866,0,7,3.134,7,7V1753z" opacity="0.8"></path><text id="kity_text_323" text-rendering="geometricPrecision" x="1602" y="1752.5" text-anchor="middle" font-style="italic" font-size="12" fill="white" dy="5">1</text></g></g><g id="minder_node42"><g id="node_expander43" style="cursor: pointer;"><path id="kity_path_718" fill="white" stroke="gray" d="M1829.5,1751.5A6,6,0,1,1,1817.5,1751.5A6,6,0,1,1,1829.5,1751.5"></path><path id="kity_path_719" fill="none" stroke="gray" d="M1819,1751.5L1828,1751.5"></path></g><path id="node_outline44" fill="none" stroke="none" d="M1703.5,1740.5h109a5,5,0,0,1,5,5v12a5,5,0,0,1,-5,5h-109a5,5,0,0,1,-5,-5v-12a5,5,0,0,1,5,-5z"></path><g id="node_text44" fill="black"><text id="kity_text_247" text-rendering="inherit" font-size="12" dy=".8em" y="1743.7000000476837" x="1708.5">24小时没凑够人数</text></g></g><g id="minder_node43"><g id="node_expander39" display="none" style="cursor: pointer;"><path id="kity_path_706" fill="white" stroke="gray" d="M2011.5,1693.5A6,6,0,1,1,1999.5,1693.5A6,6,0,1,1,2011.5,1693.5"></path><path id="kity_path_707" fill="none" stroke="gray"></path></g><path id="node_outline40" fill="none" stroke="none" d="M1891.5,1678.5h103a5,5,0,0,1,5,5v20a5,5,0,0,1,-5,5h-103a5,5,0,0,1,-5,-5v-20a5,5,0,0,1,5,-5z"></path><g id="node_text40" fill="black"><text id="kity_text_239" text-rendering="inherit" font-size="12" dy=".8em" y="1685.7000000476837" x="1921.5">2、遍历退款</text></g><g id="node_progress17"><path id="kity_path_436" fill="#FFED83" stroke="none" d="M1916,1694A9,9,0,1,1,1898,1694A9,9,0,1,1,1916,1694"></path><path id="kity_path_437" fill="#43BC00" stroke="none" d="M1907,1694"></path><path id="kity_path_438" fill="#8E8E8E" stroke="none" d="M1907,1687c4.418,0,8,3.582,8,8h1c0,-5.523,-3.477,-10,-9,-10S1898,1689.477,1898,1695h1C1899,1690.582,1902.582,1687,1907,1687z"></path><path id="kity_path_440" fill="#EEE" stroke="none" d="M1922.812,1701.896l-6.75,6.75l-4.5,-4.5L1913.25,1702.459l2.812,2.803l5.062,-5.053L1922.812,1701.896z" display="none"></path><path id="kity_path_439" fill="url(#kity_linearGradient_17)" stroke="none" d="M1907,1684C1901.477,1684,1897,1688.477,1897,1694c0,5.523,4.477,10,10,10s10,-4.477,10,-10C1917,1688.477,1912.523,1684,1907,1684zM1907,1702c-4.418,0,-8,-3.582,-8,-8s3.582,-8,8,-8s8,3.582,8,8S1911.418,1702,1907,1702z"></path></g></g><g id="minder_node44"><g id="node_expander40" display="none" style="cursor: pointer;"><path id="kity_path_709" fill="white" stroke="gray" d="M2003.5,1611.5A6,6,0,1,1,1991.5,1611.5A6,6,0,1,1,2003.5,1611.5"></path><path id="kity_path_710" fill="none" stroke="gray"></path></g><path id="node_outline41" fill="none" stroke="none" d="M1884.5,1596.5h102a5,5,0,0,1,5,5v20a5,5,0,0,1,-5,5h-102a5,5,0,0,1,-5,-5v-20a5,5,0,0,1,5,-5z"></path><g id="node_text41" fill="black"><text id="kity_text_241" text-rendering="inherit" font-size="12" dy=".8em" y="1603.7000000476837" x="1914.5">1、短信通知</text></g><g id="node_progress18"><path id="kity_path_442" fill="#FFED83" stroke="none" d="M1909,1612A9,9,0,1,1,1891,1612A9,9,0,1,1,1909,1612"></path><path id="kity_path_443" fill="#43BC00" stroke="none" d="M1900,1612"></path><path id="kity_path_444" fill="#8E8E8E" stroke="none" d="M1900,1605c4.418,0,8,3.582,8,8h1c0,-5.523,-3.477,-10,-9,-10S1891,1607.477,1891,1613h1C1892,1608.582,1895.582,1605,1900,1605z"></path><path id="kity_path_446" fill="#EEE" stroke="none" d="M1915.812,1619.896l-6.75,6.75l-4.5,-4.5L1906.25,1620.459l2.812,2.803l5.062,-5.053L1915.812,1619.896z" display="none"></path><path id="kity_path_445" fill="url(#kity_linearGradient_17)" stroke="none" d="M1900,1602C1894.477,1602,1890,1606.477,1890,1612c0,5.523,4.477,10,10,10s10,-4.477,10,-10C1910,1606.477,1905.523,1602,1900,1602zM1900,1620c-4.418,0,-8,-3.582,-8,-8s3.582,-8,8,-8s8,3.582,8,8S1904.418,1620,1900,1620z"></path></g></g><g id="minder_node45"><g id="node_expander41" display="none" style="cursor: pointer;"><path id="kity_path_712" fill="white" stroke="gray" d="M2041.5,1796.5A6,6,0,1,1,2029.5,1796.5A6,6,0,1,1,2041.5,1796.5"></path><path id="kity_path_713" fill="none" stroke="gray"></path></g><path id="node_outline42" fill="none" stroke="none" d="M1874.5,1781.5h150a5,5,0,0,1,5,5v20a5,5,0,0,1,-5,5h-150a5,5,0,0,1,-5,-5v-20a5,5,0,0,1,5,-5z"></path><g id="node_text42" fill="black"><text id="kity_text_243" text-rendering="inherit" font-size="12" dy=".8em" y="1788.7000000476837" x="1904.5">3、团长可以重新发团</text></g><g id="node_progress19"><path id="kity_path_448" fill="#FFED83" stroke="none" d="M1899,1797A9,9,0,1,1,1881,1797A9,9,0,1,1,1899,1797"></path><path id="kity_path_449" fill="#43BC00" stroke="none" d="M1890,1797"></path><path id="kity_path_450" fill="#8E8E8E" stroke="none" d="M1890,1790c4.418,0,8,3.582,8,8h1c0,-5.523,-3.477,-10,-9,-10S1881,1792.477,1881,1798h1C1882,1793.582,1885.582,1790,1890,1790z"></path><path id="kity_path_452" fill="#EEE" stroke="none" d="M1905.812,1804.896l-6.75,6.75l-4.5,-4.5L1896.25,1805.459l2.812,2.803l5.062,-5.053L1905.812,1804.896z" display="none"></path><path id="kity_path_451" fill="url(#kity_linearGradient_17)" stroke="none" d="M1890,1787C1884.477,1787,1880,1791.477,1880,1797c0,5.523,4.477,10,10,10s10,-4.477,10,-10C1900,1791.477,1895.523,1787,1890,1787zM1890,1805c-4.418,0,-8,-3.582,-8,-8s3.582,-8,8,-8s8,3.582,8,8S1894.418,1805,1890,1805z"></path></g></g><g id="minder_node46"><g id="node_expander42" display="none" style="cursor: pointer;"><path id="kity_path_715" fill="white" stroke="gray" d="M2027.5,1882.5A6,6,0,1,1,2015.5,1882.5A6,6,0,1,1,2027.5,1882.5"></path><path id="kity_path_716" fill="none" stroke="gray"></path></g><path id="node_outline43" fill="none" stroke="none" d="M1860.5,1867.5h150a5,5,0,0,1,5,5v20a5,5,0,0,1,-5,5h-150a5,5,0,0,1,-5,-5v-20a5,5,0,0,1,5,-5z"></path><g id="node_text43" fill="black"><text id="kity_text_245" text-rendering="inherit" font-size="12" dy=".8em" y="1874.7000000476837" x="1890.5">3、团员可以重新跟团</text></g><g id="node_progress20"><path id="kity_path_454" fill="#FFED83" stroke="none" d="M1885,1883A9,9,0,1,1,1867,1883A9,9,0,1,1,1885,1883"></path><path id="kity_path_455" fill="#43BC00" stroke="none" d="M1876,1883"></path><path id="kity_path_456" fill="#8E8E8E" stroke="none" d="M1876,1876c4.418,0,8,3.582,8,8h1c0,-5.523,-3.477,-10,-9,-10S1867,1878.477,1867,1884h1C1868,1879.582,1871.582,1876,1876,1876z"></path><path id="kity_path_458" fill="#EEE" stroke="none" d="M1891.812,1890.896l-6.75,6.75l-4.5,-4.5L1882.25,1891.459l2.812,2.803l5.062,-5.053L1891.812,1890.896z" display="none"></path><path id="kity_path_457" fill="url(#kity_linearGradient_17)" stroke="none" d="M1876,1873C1870.477,1873,1866,1877.477,1866,1883c0,5.523,4.477,10,10,10s10,-4.477,10,-10C1886,1877.477,1881.523,1873,1876,1873zM1876,1891c-4.418,0,-8,-3.582,-8,-8s3.582,-8,8,-8s8,3.582,8,8S1880.418,1891,1876,1891z"></path></g></g><g id="minder_node47"><g id="node_expander58" style="cursor: pointer;"><path id="kity_path_763" fill="white" stroke="gray" d="M1666.5,919.5A6,6,0,1,1,1654.5,919.5A6,6,0,1,1,1666.5,919.5"></path><path id="kity_path_764" fill="none" stroke="gray" d="M1656,919.5L1665,919.5"></path></g><path id="node_outline59" fill="none" stroke="none" d="M1566.5,904.5h83a5,5,0,0,1,5,5v20a5,5,0,0,1,-5,5h-83a5,5,0,0,1,-5,-5v-20a5,5,0,0,1,5,-5z"></path><g id="node_text59" fill="black"><text id="kity_text_277" text-rendering="inherit" font-size="12" dy=".8em" y="911.7000000476837" x="1596.5">团员跟团</text></g><g id="node_priority7"><path id="kity_path_326" fill="#840023" stroke="none" d="M1572,923c0,3.866,3.134,7,7,7h6c3.866,0,7,-3.134,7,-7V917H1572V923z"></path><path id="kity_path_327" fill="#FF1200" stroke="none" d="M1592,920c0,3.866,-3.134,7,-7,7H1579c-3.866,0,-7,-3.134,-7,-7V917c0,-3.866,3.134,-7,7,-7h6c3.866,0,7,3.134,7,7V920z" opacity="0.8"></path><text id="kity_text_328" text-rendering="geometricPrecision" x="1581" y="919.5" text-anchor="middle" font-style="italic" font-size="12" fill="white" dy="5">1</text></g></g><g id="minder_node48"><g id="node_expander45" display="none" style="cursor: pointer;"><path id="kity_path_724" fill="white" stroke="gray" d="M1928.5,747.5A6,6,0,1,1,1916.5,747.5A6,6,0,1,1,1928.5,747.5"></path><path id="kity_path_725" fill="none" stroke="gray"></path></g><path id="node_outline46" fill="none" stroke="none" d="M1760.5,736.5h151a5,5,0,0,1,5,5v12a5,5,0,0,1,-5,5h-151a5,5,0,0,1,-5,-5v-12a5,5,0,0,1,5,-5z"></path><g id="node_text46" fill="black"><text id="kity_text_251" text-rendering="inherit" font-size="12" dy=".8em" y="739.7000000476837" x="1765.5">方式：1、团长或团员分享</text></g></g><g id="minder_node49"><g id="node_expander46" display="none" style="cursor: pointer;"><path id="kity_path_727" fill="white" stroke="gray" d="M1919.5,824.5A6,6,0,1,1,1907.5,824.5A6,6,0,1,1,1919.5,824.5"></path><path id="kity_path_728" fill="none" stroke="gray"></path></g><path id="node_outline47" fill="none" stroke="none" d="M1764.5,813.5h138a5,5,0,0,1,5,5v12a5,5,0,0,1,-5,5h-138a5,5,0,0,1,-5,-5v-12a5,5,0,0,1,5,-5z"></path><g id="node_text47" fill="black"><text id="kity_text_253" text-rendering="inherit" font-size="12" dy=".8em" y="816.7000000476837" x="1769.5">方式：2、商城入口进入</text></g></g><g id="minder_node50"><g id="node_expander57" style="cursor: pointer;"><path id="kity_path_760" fill="white" stroke="gray" d="M1828.5,932.5A6,6,0,1,1,1816.5,932.5A6,6,0,1,1,1828.5,932.5"></path><path id="kity_path_761" fill="none" stroke="gray" d="M1818,932.5L1827,932.5"></path></g><path id="node_outline58" fill="none" stroke="none" d="M1715.5,917.5h96a5,5,0,0,1,5,5v20a5,5,0,0,1,-5,5h-96a5,5,0,0,1,-5,-5v-20a5,5,0,0,1,5,-5z"></path><g id="node_text58" fill="black"><text id="kity_text_275" text-rendering="inherit" font-size="12" dy=".8em" y="924.7000000476837" x="1745.5">核心流程：</text></g><g id="node_progress25"><path id="kity_path_484" fill="#FFED83" stroke="none" d="M1740,933A9,9,0,1,1,1722,933A9,9,0,1,1,1740,933"></path><path id="kity_path_485" fill="#43BC00" stroke="none" d="M1731,933"></path><path id="kity_path_486" fill="#8E8E8E" stroke="none" d="M1731,926c4.418,0,8,3.582,8,8h1c0,-5.523,-3.477,-10,-9,-10S1722,928.477,1722,934h1C1723,929.582,1726.582,926,1731,926z"></path><path id="kity_path_488" fill="#EEE" stroke="none" d="M1746.812,940.896l-6.75,6.75l-4.5,-4.5L1737.25,941.459l2.812,2.803l5.062,-5.053L1746.812,940.896z" display="none"></path><path id="kity_path_487" fill="url(#kity_linearGradient_17)" stroke="none" d="M1731,923C1725.477,923,1721,927.477,1721,933c0,5.523,4.477,10,10,10s10,-4.477,10,-10C1741,927.477,1736.523,923,1731,923zM1731,941c-4.418,0,-8,-3.582,-8,-8s3.582,-8,8,-8s8,3.582,8,8S1735.418,941,1731,941z"></path></g></g><g id="minder_node51"><g id="node_expander56" style="cursor: pointer;"><path id="kity_path_757" fill="white" stroke="gray" d="M2591.5,837.5A6,6,0,1,1,2579.5,837.5A6,6,0,1,1,2591.5,837.5"></path><path id="kity_path_758" fill="none" stroke="gray" d="M2581,837.5L2590,837.5"></path></g><path id="node_outline57" fill="none" stroke="none" d="M2516.5,826.5h58a5,5,0,0,1,5,5v12a5,5,0,0,1,-5,5h-58a5,5,0,0,1,-5,-5v-12a5,5,0,0,1,5,-5z"></path><g id="node_text57" fill="black"><text id="kity_text_273" text-rendering="inherit" font-size="12" dy=".8em" y="829.7000000476837" x="2521.5">团员跟团</text></g></g><g id="minder_node52"><g id="node_expander55" style="cursor: pointer;"><path id="kity_path_754" fill="white" stroke="gray" d="M2483.5,837.5A6,6,0,1,1,2471.5,837.5A6,6,0,1,1,2483.5,837.5"></path><path id="kity_path_755" fill="none" stroke="gray" d="M2473,837.5L2482,837.5"></path></g><path id="node_outline56" fill="none" stroke="none" d="M2384.5,826.5h82a5,5,0,0,1,5,5v12a5,5,0,0,1,-5,5h-82a5,5,0,0,1,-5,-5v-12a5,5,0,0,1,5,-5z"></path><g id="node_text56" fill="black"><text id="kity_text_271" text-rendering="inherit" font-size="12" dy=".8em" y="829.7000000476837" x="2389.5">判断当前距离</text></g></g><g id="minder_node53"><g id="node_expander48" style="cursor: pointer;"><path id="kity_path_733" fill="white" stroke="gray" d="M2351.5,768.5A6,6,0,1,1,2339.5,768.5A6,6,0,1,1,2351.5,768.5"></path><path id="kity_path_734" fill="none" stroke="gray" d="M2341,768.5L2350,768.5"></path></g><path id="node_outline49" fill="none" stroke="none" d="M2214.5,753.5h120a5,5,0,0,1,5,5v20a5,5,0,0,1,-5,5h-120a5,5,0,0,1,-5,-5v-20a5,5,0,0,1,5,-5z"></path><g id="node_text49" fill="black"><text id="kity_text_257" text-rendering="inherit" font-size="12" dy=".8em" y="760.7000000476837" x="2244.5">符合，入团成功</text></g><g id="node_progress22"><path id="kity_path_466" fill="#FFED83" stroke="none" d="M2239,769A9,9,0,1,1,2221,769A9,9,0,1,1,2239,769"></path><path id="kity_path_467" fill="#43BC00" stroke="none" d="M2230,769"></path><path id="kity_path_468" fill="#8E8E8E" stroke="none" d="M2230,762c4.418,0,8,3.582,8,8h1c0,-5.523,-3.477,-10,-9,-10S2221,764.477,2221,770h1C2222,765.582,2225.582,762,2230,762z"></path><path id="kity_path_470" fill="#EEE" stroke="none" d="M2245.812,776.896l-6.75,6.75l-4.5,-4.5L2236.25,777.459l2.812,2.803l5.062,-5.053L2245.812,776.896z" display="none"></path><path id="kity_path_469" fill="url(#kity_linearGradient_17)" stroke="none" d="M2230,759C2224.477,759,2220,763.477,2220,769c0,5.523,4.477,10,10,10s10,-4.477,10,-10C2240,763.477,2235.523,759,2230,759zM2230,777c-4.418,0,-8,-3.582,-8,-8s3.582,-8,8,-8s8,3.582,8,8S2234.418,777,2230,777z"></path></g></g><g id="minder_node54"><g id="node_expander47" display="none" style="cursor: pointer;"><path id="kity_path_730" fill="white" stroke="gray" d="M2176.5,723.5A6,6,0,1,1,2164.5,723.5A6,6,0,1,1,2176.5,723.5"></path><path id="kity_path_731" fill="none" stroke="gray"></path></g><path id="node_outline48" fill="none" stroke="none" d="M2075.5,708.5h84a5,5,0,0,1,5,5v20a5,5,0,0,1,-5,5h-84a5,5,0,0,1,-5,-5v-20a5,5,0,0,1,5,-5z"></path><g id="node_text48" fill="black"><text id="kity_text_255" text-rendering="inherit" font-size="12" dy=".8em" y="715.7000000476837" x="2105.5">团员分享</text></g><g id="node_progress21"><path id="kity_path_460" fill="#FFED83" stroke="none" d="M2100,724A9,9,0,1,1,2082,724A9,9,0,1,1,2100,724"></path><path id="kity_path_461" fill="#43BC00" stroke="none" d="M2091,724"></path><path id="kity_path_462" fill="#8E8E8E" stroke="none" d="M2091,717c4.418,0,8,3.582,8,8h1c0,-5.523,-3.477,-10,-9,-10S2082,719.477,2082,725h1C2083,720.582,2086.582,717,2091,717z"></path><path id="kity_path_464" fill="#EEE" stroke="none" d="M2106.812,731.896l-6.75,6.75l-4.5,-4.5L2097.25,732.459l2.812,2.803l5.062,-5.053L2106.812,731.896z" display="none"></path><path id="kity_path_463" fill="url(#kity_linearGradient_17)" stroke="none" d="M2091,714C2085.477,714,2081,718.477,2081,724c0,5.523,4.477,10,10,10s10,-4.477,10,-10C2101,718.477,2096.523,714,2091,714zM2091,732c-4.418,0,-8,-3.582,-8,-8s3.582,-8,8,-8s8,3.582,8,8S2095.418,732,2091,732z"></path></g></g><g id="minder_node55"><g id="node_expander54" style="cursor: pointer;"><path id="kity_path_751" fill="white" stroke="gray" d="M2351.5,910.5A6,6,0,1,1,2339.5,910.5A6,6,0,1,1,2351.5,910.5"></path><path id="kity_path_752" fill="none" stroke="gray" d="M2341,910.5L2350,910.5"></path></g><path id="node_outline55" fill="none" stroke="none" d="M2298.5,899.5h36a5,5,0,0,1,5,5v12a5,5,0,0,1,-5,5h-36a5,5,0,0,1,-5,-5v-12a5,5,0,0,1,5,-5z"></path><g id="node_text55" fill="black"><text id="kity_text_269" text-rendering="inherit" font-size="12" dy=".8em" y="902.7000000476837" x="2303.5">不符</text></g></g><g id="minder_node56"><g id="node_expander50" style="cursor: pointer;"><path id="kity_path_739" fill="white" stroke="gray" d="M2265.5,824.5A6,6,0,1,1,2253.5,824.5A6,6,0,1,1,2265.5,824.5"></path><path id="kity_path_740" fill="none" stroke="gray" d="M2255,824.5L2264,824.5"></path></g><path id="node_outline51" fill="none" stroke="none" d="M2213.5,813.5h35a5,5,0,0,1,5,5v12a5,5,0,0,1,-5,5h-35a5,5,0,0,1,-5,-5v-12a5,5,0,0,1,5,-5z"></path><g id="node_text51" fill="black"><text id="kity_text_261" text-rendering="inherit" font-size="12" dy=".8em" y="816.7000000476837" x="2218.5">自提</text></g></g><g id="minder_node57"><g id="node_expander49" display="none" style="cursor: pointer;"><path id="kity_path_736" fill="white" stroke="gray" d="M2180.5,824.5A6,6,0,1,1,2168.5,824.5A6,6,0,1,1,2180.5,824.5"></path><path id="kity_path_737" fill="none" stroke="gray"></path></g><path id="node_outline50" fill="none" stroke="none" d="M2103.5,813.5h60a5,5,0,0,1,5,5v12a5,5,0,0,1,-5,5h-60a5,5,0,0,1,-5,-5v-12a5,5,0,0,1,5,-5z"></path><g id="node_text50" fill="black"><text id="kity_text_259" text-rendering="inherit" font-size="12" dy=".8em" y="816.7000000476837" x="2108.5">确认地址</text></g></g><g id="minder_node58"><g id="node_expander51" display="none" style="cursor: pointer;"><path id="kity_path_742" fill="white" stroke="gray" d="M2265.5,880.5A6,6,0,1,1,2253.5,880.5A6,6,0,1,1,2265.5,880.5"></path><path id="kity_path_743" fill="none" stroke="gray"></path></g><path id="node_outline52" fill="none" stroke="none" d="M2164.5,865.5h84a5,5,0,0,1,5,5v20a5,5,0,0,1,-5,5h-84a5,5,0,0,1,-5,-5v-20a5,5,0,0,1,5,-5z"></path><g id="node_text52" fill="black"><text id="kity_text_263" text-rendering="inherit" font-size="12" dy=".8em" y="872.7000000476837" x="2194.5">重新拼团</text></g><g id="node_progress23"><path id="kity_path_472" fill="#FFED83" stroke="none" d="M2189,881A9,9,0,1,1,2171,881A9,9,0,1,1,2189,881"></path><path id="kity_path_473" fill="#43BC00" stroke="none" d="M2180,881"></path><path id="kity_path_474" fill="#8E8E8E" stroke="none" d="M2180,874c4.418,0,8,3.582,8,8h1c0,-5.523,-3.477,-10,-9,-10S2171,876.477,2171,882h1C2172,877.582,2175.582,874,2180,874z"></path><path id="kity_path_476" fill="#EEE" stroke="none" d="M2195.812,888.896l-6.75,6.75l-4.5,-4.5L2186.25,889.459l2.812,2.803l5.062,-5.053L2195.812,888.896z" display="none"></path><path id="kity_path_475" fill="url(#kity_linearGradient_17)" stroke="none" d="M2180,871C2174.477,871,2170,875.477,2170,881c0,5.523,4.477,10,10,10s10,-4.477,10,-10C2190,875.477,2185.523,871,2180,871zM2180,889c-4.418,0,-8,-3.582,-8,-8s3.582,-8,8,-8s8,3.582,8,8S2184.418,889,2180,889z"></path></g></g><g id="minder_node59"><g id="node_expander52" display="none" style="cursor: pointer;"><path id="kity_path_745" fill="white" stroke="gray" d="M2265.5,940.5A6,6,0,1,1,2253.5,940.5A6,6,0,1,1,2265.5,940.5"></path><path id="kity_path_746" fill="none" stroke="gray"></path></g><path id="node_outline53" fill="none" stroke="none" d="M2116.5,925.5h132a5,5,0,0,1,5,5v20a5,5,0,0,1,-5,5h-132a5,5,0,0,1,-5,-5v-20a5,5,0,0,1,5,-5z"></path><g id="node_text53" fill="black"><text id="kity_text_265" text-rendering="inherit" font-size="12" dy=".8em" y="932.7000000476837" x="2146.5">是代理，发起拼团</text></g><g id="node_progress24"><path id="kity_path_478" fill="#FFED83" stroke="none" d="M2141,941A9,9,0,1,1,2123,941A9,9,0,1,1,2141,941"></path><path id="kity_path_479" fill="#43BC00" stroke="none" d="M2132,941"></path><path id="kity_path_480" fill="#8E8E8E" stroke="none" d="M2132,934c4.418,0,8,3.582,8,8h1c0,-5.523,-3.477,-10,-9,-10S2123,936.477,2123,942h1C2124,937.582,2127.582,934,2132,934z"></path><path id="kity_path_482" fill="#EEE" stroke="none" d="M2147.812,948.896l-6.75,6.75l-4.5,-4.5L2138.25,949.459l2.812,2.803l5.062,-5.053L2147.812,948.896z" display="none"></path><path id="kity_path_481" fill="url(#kity_linearGradient_17)" stroke="none" d="M2132,931C2126.477,931,2122,935.477,2122,941c0,5.523,4.477,10,10,10s10,-4.477,10,-10C2142,935.477,2137.523,931,2132,931zM2132,949c-4.418,0,-8,-3.582,-8,-8s3.582,-8,8,-8s8,3.582,8,8S2136.418,949,2132,949z"></path></g></g><g id="minder_node60"><g id="node_expander53" display="none" style="cursor: pointer;"><path id="kity_path_748" fill="white" stroke="gray" d="M2265.5,996.5A6,6,0,1,1,2253.5,996.5A6,6,0,1,1,2265.5,996.5"></path><path id="kity_path_749" fill="none" stroke="gray"></path></g><path id="node_outline54" fill="none" stroke="none" d="M1997.5,985.5h251a5,5,0,0,1,5,5v12a5,5,0,0,1,-5,5h-251a5,5,0,0,1,-5,-5v-12a5,5,0,0,1,5,-5z"></path><g id="node_text54" fill="black"><text id="kity_text_267" text-rendering="inherit" font-size="12" dy=".8em" y="988.7000000476837" x="2002.5">请团长更改信息，或请团长重新发起一次拼团</text></g></g><g id="minder_node61"><g id="node_expander65" style="cursor: pointer;"><path id="kity_path_784" fill="white" stroke="gray" d="M1145.5,1622.5A6,6,0,1,1,1133.5,1622.5A6,6,0,1,1,1145.5,1622.5"></path><path id="kity_path_785" fill="none" stroke="gray" d="M1135,1622.5L1144,1622.5"></path></g><path id="node_outline66" fill="none" stroke="none" d="M1044.5,1607.5h84a5,5,0,0,1,5,5v20a5,5,0,0,1,-5,5h-84a5,5,0,0,1,-5,-5v-20a5,5,0,0,1,5,-5z"></path><g id="node_text66" fill="black"><text id="kity_text_291" text-rendering="inherit" font-size="12" dy=".8em" y="1614.7000000476837" x="1074.5">团购跟踪</text></g><g id="node_priority8"><path id="kity_path_331" fill="#840023" stroke="none" d="M1050,1626c0,3.866,3.134,7,7,7h6c3.866,0,7,-3.134,7,-7V1620H1050V1626z"></path><path id="kity_path_332" fill="#FF1200" stroke="none" d="M1070,1623c0,3.866,-3.134,7,-7,7H1057c-3.866,0,-7,-3.134,-7,-7V1620c0,-3.866,3.134,-7,7,-7h6c3.866,0,7,3.134,7,7V1623z" opacity="0.8"></path><text id="kity_text_333" text-rendering="geometricPrecision" x="1059" y="1622.5" text-anchor="middle" font-style="italic" font-size="12" fill="white" dy="5">1</text></g></g><g id="minder_node62"><g id="node_expander62" style="cursor: pointer;"><path id="kity_path_775" fill="white" stroke="gray" d="M1011.5,1547.5A6,6,0,1,1,999.5,1547.5A6,6,0,1,1,1011.5,1547.5"></path><path id="kity_path_776" fill="none" stroke="gray" d="M1001,1547.5L1010,1547.5"></path></g><path id="node_outline63" fill="none" stroke="none" d="M904.5,1532.5h90a5,5,0,0,1,5,5v20a5,5,0,0,1,-5,5h-90a5,5,0,0,1,-5,-5v-20a5,5,0,0,1,5,-5z"></path><g id="node_text63" fill="black"><text id="kity_text_285" text-rendering="inherit" font-size="12" dy=".8em" y="1539.7000000476837" x="934.5">1、待发货</text></g><g id="node_progress29"><path id="kity_path_508" fill="#FFED83" stroke="none" d="M929,1548A9,9,0,1,1,911,1548A9,9,0,1,1,929,1548"></path><path id="kity_path_509" fill="#43BC00" stroke="none" d="M920,1548"></path><path id="kity_path_510" fill="#8E8E8E" stroke="none" d="M920,1541c4.418,0,8,3.582,8,8h1c0,-5.523,-3.477,-10,-9,-10S911,1543.477,911,1549h1C912,1544.582,915.582,1541,920,1541z"></path><path id="kity_path_512" fill="#EEE" stroke="none" d="M935.812,1555.896l-6.75,6.75l-4.5,-4.5L926.25,1556.459l2.812,2.803l5.062,-5.053L935.812,1555.896z" display="none"></path><path id="kity_path_511" fill="url(#kity_linearGradient_17)" stroke="none" d="M920,1538C914.477,1538,910,1542.477,910,1548c0,5.523,4.477,10,10,10s10,-4.477,10,-10C930,1542.477,925.523,1538,920,1538zM920,1556c-4.418,0,-8,-3.582,-8,-8s3.582,-8,8,-8s8,3.582,8,8S924.418,1556,920,1556z"></path></g></g><g id="minder_node63"><g id="node_expander60" style="cursor: pointer;"><path id="kity_path_769" fill="white" stroke="gray" d="M870.5,1475.5A6,6,0,1,1,858.5,1475.5A6,6,0,1,1,870.5,1475.5"></path><path id="kity_path_770" fill="none" stroke="gray" d="M860,1475.5L869,1475.5"></path></g><path id="node_outline61" fill="none" stroke="none" d="M763.5,1460.5h90a5,5,0,0,1,5,5v20a5,5,0,0,1,-5,5h-90a5,5,0,0,1,-5,-5v-20a5,5,0,0,1,5,-5z"></path><g id="node_text61" fill="black"><text id="kity_text_281" text-rendering="inherit" font-size="12" dy=".8em" y="1467.7000000476837" x="793.5">1、未成团</text></g><g id="node_progress27"><path id="kity_path_496" fill="#FFED83" stroke="none" d="M788,1476A9,9,0,1,1,770,1476A9,9,0,1,1,788,1476"></path><path id="kity_path_497" fill="#43BC00" stroke="none" d="M779,1476"></path><path id="kity_path_498" fill="#8E8E8E" stroke="none" d="M779,1469c4.418,0,8,3.582,8,8h1c0,-5.523,-3.477,-10,-9,-10S770,1471.477,770,1477h1C771,1472.582,774.582,1469,779,1469z"></path><path id="kity_path_500" fill="#EEE" stroke="none" d="M794.812,1483.896l-6.75,6.75l-4.5,-4.5L785.25,1484.459l2.812,2.803l5.062,-5.053L794.812,1483.896z" display="none"></path><path id="kity_path_499" fill="url(#kity_linearGradient_17)" stroke="none" d="M779,1466C773.477,1466,769,1470.477,769,1476c0,5.523,4.477,10,10,10s10,-4.477,10,-10C789,1470.477,784.523,1466,779,1466zM779,1484c-4.418,0,-8,-3.582,-8,-8s3.582,-8,8,-8s8,3.582,8,8S783.418,1484,779,1484z"></path></g></g><g id="minder_node64"><g id="node_expander59" display="none" style="cursor: pointer;"><path id="kity_path_766" fill="white" stroke="gray" d="M730.5,1475.5A6,6,0,1,1,718.5,1475.5A6,6,0,1,1,730.5,1475.5"></path><path id="kity_path_767" fill="none" stroke="gray"></path></g><path id="node_outline60" fill="none" stroke="none" d="M629.5,1460.5h84a5,5,0,0,1,5,5v20a5,5,0,0,1,-5,5h-84a5,5,0,0,1,-5,-5v-20a5,5,0,0,1,5,-5z"></path><g id="node_text60" fill="black"><text id="kity_text_279" text-rendering="inherit" font-size="12" dy=".8em" y="1467.7000000476837" x="659.5">分享拼团</text></g><g id="node_progress26"><path id="kity_path_490" fill="#FFED83" stroke="none" d="M654,1476A9,9,0,1,1,636,1476A9,9,0,1,1,654,1476"></path><path id="kity_path_491" fill="#43BC00" stroke="none" d="M645,1476"></path><path id="kity_path_492" fill="#8E8E8E" stroke="none" d="M645,1469c4.418,0,8,3.582,8,8h1c0,-5.523,-3.477,-10,-9,-10S636,1471.477,636,1477h1C637,1472.582,640.582,1469,645,1469z"></path><path id="kity_path_494" fill="#EEE" stroke="none" d="M660.812,1483.896l-6.75,6.75l-4.5,-4.5L651.25,1484.459l2.812,2.803l5.062,-5.053L660.812,1483.896z" display="none"></path><path id="kity_path_493" fill="url(#kity_linearGradient_17)" stroke="none" d="M645,1466C639.477,1466,635,1470.477,635,1476c0,5.523,4.477,10,10,10s10,-4.477,10,-10C655,1470.477,650.523,1466,645,1466zM645,1484c-4.418,0,-8,-3.582,-8,-8s3.582,-8,8,-8s8,3.582,8,8S649.418,1484,645,1484z"></path></g></g><g id="minder_node65"><g id="node_expander61" display="none" style="cursor: pointer;"><path id="kity_path_772" fill="white" stroke="gray" d="M871.5,1577.5A6,6,0,1,1,859.5,1577.5A6,6,0,1,1,871.5,1577.5"></path><path id="kity_path_773" fill="none" stroke="gray"></path></g><path id="node_outline62" fill="none" stroke="none" d="M764.5,1562.5h90a5,5,0,0,1,5,5v20a5,5,0,0,1,-5,5h-90a5,5,0,0,1,-5,-5v-20a5,5,0,0,1,5,-5z"></path><g id="node_text62" fill="black"><text id="kity_text_283" text-rendering="inherit" font-size="12" dy=".8em" y="1569.7000000476837" x="794.5">2、已成团</text></g><g id="node_progress28"><path id="kity_path_502" fill="#FFED83" stroke="none" d="M789,1578A9,9,0,1,1,771,1578A9,9,0,1,1,789,1578"></path><path id="kity_path_503" fill="#43BC00" stroke="none" d="M780,1578"></path><path id="kity_path_504" fill="#8E8E8E" stroke="none" d="M780,1571c4.418,0,8,3.582,8,8h1c0,-5.523,-3.477,-10,-9,-10S771,1573.477,771,1579h1C772,1574.582,775.582,1571,780,1571z"></path><path id="kity_path_506" fill="#EEE" stroke="none" d="M795.812,1585.896l-6.75,6.75l-4.5,-4.5L786.25,1586.459l2.812,2.803l5.062,-5.053L795.812,1585.896z" display="none"></path><path id="kity_path_505" fill="url(#kity_linearGradient_17)" stroke="none" d="M780,1568C774.477,1568,770,1572.477,770,1578c0,5.523,4.477,10,10,10s10,-4.477,10,-10C790,1572.477,785.523,1568,780,1568zM780,1586c-4.418,0,-8,-3.582,-8,-8s3.582,-8,8,-8s8,3.582,8,8S784.418,1586,780,1586z"></path></g></g><g id="minder_node66"><g id="node_expander63" display="none" style="cursor: pointer;"><path id="kity_path_778" fill="white" stroke="gray" d="M1011.5,1637.5A6,6,0,1,1,999.5,1637.5A6,6,0,1,1,1011.5,1637.5"></path><path id="kity_path_779" fill="none" stroke="gray"></path></g><path id="node_outline64" fill="none" stroke="none" d="M904.5,1622.5h90a5,5,0,0,1,5,5v20a5,5,0,0,1,-5,5h-90a5,5,0,0,1,-5,-5v-20a5,5,0,0,1,5,-5z"></path><g id="node_text64" fill="black"><text id="kity_text_287" text-rendering="inherit" font-size="12" dy=".8em" y="1629.7000000476837" x="934.5">2、待收货</text></g><g id="node_progress30"><path id="kity_path_514" fill="#FFED83" stroke="none" d="M929,1638A9,9,0,1,1,911,1638A9,9,0,1,1,929,1638"></path><path id="kity_path_515" fill="#43BC00" stroke="none" d="M920,1638"></path><path id="kity_path_516" fill="#8E8E8E" stroke="none" d="M920,1631c4.418,0,8,3.582,8,8h1c0,-5.523,-3.477,-10,-9,-10S911,1633.477,911,1639h1C912,1634.582,915.582,1631,920,1631z"></path><path id="kity_path_518" fill="#EEE" stroke="none" d="M935.812,1645.896l-6.75,6.75l-4.5,-4.5L926.25,1646.459l2.812,2.803l5.062,-5.053L935.812,1645.896z" display="none"></path><path id="kity_path_517" fill="url(#kity_linearGradient_17)" stroke="none" d="M920,1628C914.477,1628,910,1632.477,910,1638c0,5.523,4.477,10,10,10s10,-4.477,10,-10C930,1632.477,925.523,1628,920,1628zM920,1646c-4.418,0,-8,-3.582,-8,-8s3.582,-8,8,-8s8,3.582,8,8S924.418,1646,920,1646z"></path></g></g><g id="minder_node67"><g id="node_expander64" display="none" style="cursor: pointer;"><path id="kity_path_781" fill="white" stroke="gray" d="M1011.5,1697.5A6,6,0,1,1,999.5,1697.5A6,6,0,1,1,1011.5,1697.5"></path><path id="kity_path_782" fill="none" stroke="gray"></path></g><path id="node_outline65" fill="none" stroke="none" d="M903.5,1682.5h91a5,5,0,0,1,5,5v20a5,5,0,0,1,-5,5h-91a5,5,0,0,1,-5,-5v-20a5,5,0,0,1,5,-5z"></path><g id="node_text65" fill="black"><text id="kity_text_289" text-rendering="inherit" font-size="12" dy=".8em" y="1689.7000000476837" x="933.5">3、待评价</text></g><g id="node_progress31"><path id="kity_path_520" fill="#FFED83" stroke="none" d="M928,1698A9,9,0,1,1,910,1698A9,9,0,1,1,928,1698"></path><path id="kity_path_521" fill="#43BC00" stroke="none" d="M919,1698"></path><path id="kity_path_522" fill="#8E8E8E" stroke="none" d="M919,1691c4.418,0,8,3.582,8,8h1c0,-5.523,-3.477,-10,-9,-10S910,1693.477,910,1699h1C911,1694.582,914.582,1691,919,1691z"></path><path id="kity_path_524" fill="#EEE" stroke="none" d="M934.812,1705.896l-6.75,6.75l-4.5,-4.5L925.25,1706.459l2.812,2.803l5.062,-5.053L934.812,1705.896z" display="none"></path><path id="kity_path_523" fill="url(#kity_linearGradient_17)" stroke="none" d="M919,1688C913.477,1688,909,1692.477,909,1698c0,5.523,4.477,10,10,10s10,-4.477,10,-10C929,1692.477,924.523,1688,919,1688zM919,1706c-4.418,0,-8,-3.582,-8,-8s3.582,-8,8,-8s8,3.582,8,8S923.418,1706,919,1706z"></path></g></g></g></g></svg>